/* XPM */
static char *d4558e6c646b42d9f83c4e63b4326fe3FU2FGyiWbleLJHU4[] = {
/* columns rows colors chars-per-pixel */
"64 64 177 2 ",
"   c #1C1A25",
".  c #1D1D28",
"X  c #221C27",
"o  c #2A1F27",
"O  c #241D29",
"+  c #2B1F29",
"@  c #1E232B",
"#  c #1F282F",
"$  c #1F2A30",
"%  c #22232C",
"&  c #2D212A",
"*  c #34222B",
"=  c #3C252D",
"-  c #3F282F",
";  c #212B32",
":  c #243237",
">  c #24363A",
",  c #263B3E",
"<  c #283C3F",
"1  c #42262E",
"2  c #44292E",
"3  c #49292E",
"4  c #522B2F",
"5  c #582E2F",
"6  c #432630",
"7  c #492732",
"8  c #452831",
"9  c #4C2A31",
"0  c #532C32",
"q  c #5B2E33",
"w  c #5D3034",
"e  c #622F35",
"r  c #643135",
"t  c #6B3336",
"y  c #653238",
"u  c #6A3339",
"i  c #6A313A",
"p  c #693338",
"a  c #6F3338",
"s  c #6D3438",
"d  c #6D353A",
"f  c #6D3439",
"g  c #703435",
"h  c #713535",
"j  c #713436",
"k  c #703536",
"l  c #713536",
"z  c #713437",
"x  c #703537",
"c  c #733436",
"v  c #723437",
"b  c #733537",
"n  c #703637",
"m  c #713637",
"M  c #733637",
"N  c #743537",
"B  c #753637",
"V  c #763636",
"C  c #763637",
"Z  c #773637",
"A  c #763737",
"S  c #723537",
"D  c #793737",
"F  c #7B3737",
"G  c #793737",
"H  c #783937",
"J  c #7B3837",
"K  c #7C3A36",
"L  c #7B3937",
"P  c #733339",
"I  c #723538",
"U  c #703638",
"Y  c #723638",
"T  c #733638",
"R  c #70343A",
"E  c #70363B",
"W  c #73363B",
"Q  c #753538",
"!  c #763438",
"~  c #773538",
"^  c #753638",
"/  c #743639",
"(  c #753639",
")  c #763738",
"_  c #773639",
"`  c #75363A",
"'  c #74373A",
"]  c #76363A",
"[  c #77373B",
"{  c #743639",
"}  c #783539",
"|  c #783638",
" . c #793738",
".. c #793639",
"X. c #793739",
"o. c #7A3738",
"O. c #7B3738",
"+. c #7B3639",
"@. c #7A3739",
"#. c #78363A",
"$. c #79373B",
"%. c #7A373A",
"&. c #7C3739",
"*. c #7E3739",
"=. c #7C363B",
"-. c #7A3739",
";. c #74383A",
":. c #763839",
">. c #793939",
",. c #7B3938",
"<. c #7B3939",
"1. c #7B3839",
"2. c #79383A",
"3. c #7B383B",
"4. c #7B383A",
"5. c #7B3A3A",
"6. c #7C3839",
"7. c #7D3939",
"8. c #7E3939",
"9. c #7E3839",
"0. c #7C383B",
"q. c #7C393A",
"w. c #7E383A",
"e. c #7E3A3B",
"r. c #7F383C",
"t. c #7C393A",
"y. c #263E40",
"u. c #283E41",
"i. c #274243",
"p. c #294445",
"a. c #284847",
"s. c #2A4748",
"d. c #2C4B4B",
"f. c #304F4F",
"g. c #2D514E",
"h. c #2E5552",
"j. c #2F5955",
"k. c #2F5E59",
"l. c #305653",
"z. c #315A56",
"x. c #325E59",
"c. c #2F615A",
"v. c #33635D",
"b. c #356760",
"n. c #386762",
"m. c #366B63",
"M. c #386D66",
"N. c #377067",
"B. c #387067",
"V. c #377369",
"C. c #3A746B",
"Z. c #3B796E",
"A. c #3C7D71",
"S. c #82373C",
"D. c #813A39",
"F. c #80393A",
"G. c #83393A",
"H. c #813A3A",
"J. c #833B3B",
"K. c #843B39",
"L. c #84393B",
"P. c #853B3A",
"I. c #843B3B",
"U. c #873B3B",
"Y. c #863B3B",
"T. c #82393C",
"R. c #833B3C",
"E. c #853A3C",
"W. c #873B3C",
"Q. c #873A3C",
"!. c #833A3B",
"~. c #883C3C",
"^. c #8A3C3C",
"/. c #3E8275",
"(. c #3F8678",
"). c #408276",
"_. c #408678",
/* pixels */
"3 r Y.Y.w q ^ r T 3.8 T w q T.r q e r U.r q 3.9  .;.6 q 3.E.Z = 9 t Y.H.q q ! q :.;.8  .q r Y.5 r q y ~.q q Z 0  .R 1 q J Y.Z * ",
"r r 2 t ~.0 t E.q ^ 0 w 0.3.0 q 1 R w.r q 0 H E.r r 0 T.:.k I.0 t r 2 s ^.q T 0.w 3.9 q D.D q 0 1 Z *.r q 0  .^.e i 0 Y.Z k Y.3 ",
"0 t T r r w  .r w.0.7 3. .r T r 0 i i Z e q K t T.v 2 q H H.k = 0 t k r r e T y 5.3.7 5. .e k q 0 r r ^ w r 3.p G.t 2 e 3.T.k = ",
"t k q Z s 3 Z H.p p 9 t k  .e 0 8 :.w.t q 1 g D 0  .r Z Y.3.I.7 s a q Z i 9 ^ H.r s 3 t v  .e 9 9 3.w.T q 3 m U 4 *.e *.H. .Y.1 ",
"9 H w.r r w H t 3.T 8  .^ y [ q 9 s r k t 0 r q 3.q q t D ^.w.1 0  .H.w r w 3.t 0.d 8 w.^ r H q 0 t r ^ r w r r 3.q 0 k w.H.w.= ",
"r Z t 3.^ 2 Z H.r T.9 t  .3.T y 9 r s T r 4 H.w.i *.t t w.H.H.8 t R t w.s 7 3.H.r T.7 T  .3.k q 0 r T U q 0 e.w.r 3.t k H.H.H.= ",
"7 H.H.r 3.r I.t R.s = ^ k r  .^ 5 I.t r T 0 t H.E.e w ^ 0.E.Y.= 4 G.w.r 3.r Y.r E.t = H.v w 3.t r T.i r t q i I.I.w w 3.0.Y.I.* ",
"s r r Y.t 3 r Y.r 3.8 q i H.r $.0 r t J 3 q Y.i ^ ~.t k T.$.Y.0 Z e t Y.r 9 t Y.r Z 2 q t H.t T q r r w.8 r Y.r H ^.y U T.5.~.3 ",
"7 ^ H.r T r *.r R.r =  .e w T.0 1 Y. .e r q t  .$.w.$.^ 0. .R q 9  .T.y c t  .r G.e 6 *.e e T.3 7 ^.D r r w t 3.3.K D H 3.H T 0 ",
"q Z i  .t 3 ^ 0.p ^ = q ^ r &     O 0 w.q 1 k ^ t ^.i ! T ^ ~.3 r k r w.t 9 ^  .a R 6 q +.q o     o 0 G.0 8 Z U t ^.r 3.t H Y.8 ",
"q k ^ t t q Z p U T * 1 2 O         X * * 3 t a w.t 0 a :.w.^ 4 w T :.t i q v v a v * 2 1 X           = * 9 t t w.n 0 t 3. .Z 3 ",
"= T y T s 1 t r T r +                     * J *.s H.9 T a T *.1 8 :.r t t 2 R e v q o                     = I.3.s w.9 U t Z w.= ",
"  & q y 0 7 r ^ 0             ; ; .       X + i E.t 8 r  .e *     * q e 0 9 e ^ 0           . ; ; .       . & t H.r 1 e 3.q *   ",
"    X 1 r 3 3.8 .         % d.m.d.x.y..         0 0.r t 8 X         X 2 e 9 *.1           # h.b.h.z.,         X 4 H.r t = .     ",
"        * 6 0           # v.(.d.z.v.m.,         . = 0 = .               * 2 0           # v.).a.x.v.m.>           6 0 =         ",
"                      a.A.M.j.M.p.A.V.m.l.                                            d.A.m.z.b.a.).B.M.d.                      ",
"%                 @ ; B.v.C.).v.v.M.C.Z.h.@ .                 $ #                 % ; C.v.C._.h.M.B.C.Z.d.@ .                 $ ",
"M.p..           ; C.i.x.A.B.x.Z.z.B.A.C.z.f.m.@           ; z.M.C.y..           $ Z.u.v.A.M.x.C.z.V.A.M.j.h.b.%           ; v.m.",
"v.A.x.;       ; m.A.< m.v.B.Z.z.m.Z.M.C.v.d./.v.;       : m.Z.x.b.Z.z.#     . ; B.A., m.b.N.Z.l.C.C.M.C.x.d./.v.$     . : m.Z.h.",
"z.h.m.V.y.@ , C.m.N.p.v.C.v.v.z.d.C.A.C.h.j.Z.C.A.d.; d.Z.v.M.v.x.l.M.M., @ u.C.b.B.p.b.C.v.v.z.h.C./.V.h.x.C.C.Z.a.; d.C.m.M.k.",
"m.A.v.x.V.g.b.v.C.(.g.v.x.C.Z.l.x.Z.M.C.M.z.Z.Z.M.).b.C.m.Z.A.j.N.A.x.x.B.h.b.x.V.(.g.v.x.Z.Z.d.v.Z.M.Z.M.z.A.C.m.).x.C.m.A.A.h.",
"z.b.C.C.d.p.C./.V.j.p.v.Z.v.z.C.x.B.A.Z.z.j.M.m.Z.C.j.C.A.C.C.v.v.b.C.C.d.s.C.).N.x.p.m.A.x.x.B.v.N.A.Z.l.z.M.M.Z.Z.l.Z.A.V.V.x.",
"V.M.l.v.C.z.A.v.j.A.l.m.l.v.(.x.d.).C.Z.M.x._.B.v./.z.m.Z./.A.j.C.M.h.b.C.z.A.b.z.A.h.B.h.M.(.h.d.A.C.Z.M.v._.M.x.).l.m.Z./.A.g.",
"x.(.(.C.l.y.v./.A.c.p.v./.m.d.v.l.n.Z.A.v.p.v.).).v.d.A.A.N.C.v.m.(./.C.g.p.v.).A.x.p.b.).b.d.k.z.M.A.A.z.s.v.)._.v.d.A.A.M.Z.x.",
"m.b.v.A.A.x./.x.v./.d.V.h.j.A.j.> Z./.C.x.l.).v.v./.v.x.Z.(.A.j.M.v.v.A.A.v.).z.b.A.d.C.h.k./.h.i.Z./.C.z.z.).v.v._.z.v.A./.A.h.",
"z./.).v.g., v./.B.v.p.z./.N.d.v.l.v.l.B.M.l.x.A.Z.m.z.A.C.M.A.V.x.(./.v.d.< v./.m.b.p.x./.M.d.x.z.v.h.C.M.h.x.A.Z.m.x./.C.M.A.m.",
"v.m.C.A.N.a.A.m.m.A.a.M.m.h.n.m.d.A.Z.m.x.z.A.l.Z./.v.m.C.A.C.x.m.m.C.A.M.d.A.b.m.Z.s.C.v.h.M.v.g.A.C.m.j.v.C.z.Z.A.x.M.C.A.C.h.",
"v.(.C.b.b.i.v.A.M.v.u.z.M.M.x.v.d.Z.B.C.n.d.v.A.k.M.m.A.C.b.V.v.m./.C.v.b.p.v.A.M.v., l.M.M.v.v.h.Z.B.Z.v.a.m.A.z.C.m.A.C.v.C.x.",
"x.v.V./.A.a.C.v.C.C.y.v.x.m.Z.z.d.m.C.Z.x.h.B.x.V.C.j.C.C.A.b.p.v.v.V.(.C.d.V.b.B.B.u.v.x.M.Z.g.g.m.C.Z.j.z.M.x.V.Z.h.N.A.A.v.i.",
"v.A.M.x.M.g.C.Z.v.v., x.A.m.l.m.d.Z.Z.m.z.i.d.Z.m.v.d.Z.C.v.M.l.m.A.M.x.M.g.C.C.x.b.> v.).b.h.m.g.Z.Z.m.h.p.d.Z.v.v.g.Z.M.c.V.g.",
"h.x.A./.v.z.A.z.C./.a.V.b.h.Z.C.f.v.m./.j.j.B.d.A.C.a.k.m.).M.i.h.x.A.A.k.x.A.j.C.).a.C.v.l.A.m.h.v.N.).z.x.m.g./.C.i.x.M./.m., ",
"M.C.h.l.A.h.v.).M.j.p.z.C.Z.j.h.l.).A.z.v.p.v.A.d.m.k./.M.v.C.z.C.C.h.h.A.l.b.(.M.x.p.h.C.Z.l.g.x.(.Z.z.z.a.v.A.a.V.x.(.M.v.Z.g.",
"s.v././.j.l.Z.x.M.Z.p.V.x.j.Z.x.z.z.v.(.v.j.C.d.C.M.i.z.V./.C., a.M./.A.h.z.C.x.M.C.p.C.z.z.A.j.x.z.b./.z.x.C.d.A.m.u.z.Z./.C.> ",
"v.v.a.v./.l.m.A.j.N.h.h.Z.Z.l.g.i.V.C.v.j.g.C.(.v.v.h.A.C.N./.g.b.v.a.M.(.l.m.A.x.C.f.h.A.C.h.g.p.C.C.x.x.h.C./.v.v.h.A.C.B.A.a.",
"g.v.M.v.v.x.C.v.Z.Z.d.C.C.v.m.v.d.v.v.B.v.j.Z.m./.m.i.z.C.A.N.> l.m.m.v.v.x.C.v.A.Z.a.C.C.x.N.k.h.v.b.N.l.x.Z.n.A.m.i.z.C.A.B.> ",
"m.M.j.C.m.a.M./.m.v.a.b.M.C.v.d.a.V.Z.M.z.i.N.C.d.Z.v.C./.Z./.p.M.m.h.C.b.d.V.A.b.b.d.b.V.C.x.d.d.C.A.m.l.s.B.B.d.A.v.Z.A.A.A.i.",
"d.C.A.v.v.z.Z.m.Z.M.p.Z.Z.v.C.v.d.M.v.M.b.h.v.z.Z.j.h.m.Z./.Z.i.h.Z.A.x.v.x.C.m.Z.M.u.A.C.v.C.j.g.m.x.V.x.z.x.v.Z.j.h.M.A./.Z.< ",
"v.C.v.Z.M.s.M.A.v.A.d.b.C.Z.M.v.d.v.m.m.x.d.A.Z.m.Z.v.M.A.A./.i.m.N.v.Z.b.s.C.A.v.Z.a.m.C.Z.B.z.g.b.m.M.l.l./.C.m.Z.v.M.A.A.A., ",
"s./.Z.v.Z.x._.b.A.M., C.C.z.B.N.j.A.c.v.M.h.m./.A.v.x.C.Z././.i.a./.Z.v.C.v.A.b.A.M.y.Z.M.x.C.m.x.A.v.b.m.h.m./.A.x.k.C.Z./.A., ",
"v.x.v./.v.d.b.A.v.A.p.h.v.A.m.C.h.x.b.A.d.l.).v.V.(.v.m.A.Z.(.d.M.x.b./.v.d.b./.v.C.p.l.m.A.v.M.z.x.b.Z.i.v.(.v.C.(.v.M.A.Z._.s.",
"d.C.Z.v.B.v.Z.v.A.v.u.C.v.x.A.g.p./.C.v.v.j.m.V.C.A.C.C.C.C.M.h.d.C.A.v.B.v.C.v.A.v., Z.x.v.A.d.a.(.C.v.v.x.v.Z.V.A.C.V.Z.C.M.d.",
"z.B.m.A.M.p.B.C.m.B.i.j.M.v.; .   # g.Z.h.u.N.C.M./.v.C.M.C.(.d.v.M.b.A.b.a.C.C.m.N.i.j.M.z.;     ; h.A.g.p.C.B.M.(.x.C.m.Z.).s.",
"j.B.C.v.v.l.C.m.M.M., < i.%         @ u., p.m.m.Z.m.l.n.C.Z.C.g.c.m.V.b.v.k.M.m.M.M.> p.i.#         @ < : d.m.M.V.m.h.m.Z.Z.C.a.",
"i.M.v.m.M.p.m.v.m.v.;                     , Z.C.M.A.d.M.m.M.Z.p.p.M.v.N.b.a.M.v.N.z.#                     < A.V.m.A.a.V.b.B.Z.u.",
"  ; z.v.f.d.v.B.h.@           + o X       . ; v./.v.d.z.C.v.:     : k.v.d.d.v.C.g.            o &           : m.A.v.i.v.C.x.:   ",
"    @ p.v.s.Z.s..         o 0 v 0 e 2         @ d.Z.v.m.s..         @ a.v.d.C.i.          o 5 t 0 r 1         @ h.A.x.M.p..     ",
"      . > i.l.          o r Y.9 e t v =           y.g.y..             . > p.g.        . & t Y.3 e r t =           i.g.<         ",
"                      7 H.T q T 6 T. .t q                                           . 3 H.t q t 3 Y.^ k 0                       ",
"O                 O o ^ r 3.~.r y ^ ^ w.0 O X                 o O                 O + ^ e  .^.q s T ^ w.0 X .                 o ",
"^ 3 O           +  .1 e T.E w 3.q T H.D q 0 k &           & w T *.6 X           & 0.6 t ^.R e ^ q ^ H.^ q 0 a O           * e t ",
"r H.r +     . + s H.= t r m 3.w t  .k  .r 3 Y.t *       * t w.w i w.e o       * [ 0.= t r k  .0 k w.k  .q 0 Y.i + .   X * k G.0 ",
"q q t Z 1 O 6  .t ^ 3 e 3.y r r 0 T H. .q q w.^ *.0 + 4 D t k r w q c k = % 2 w.t :.1 t 3.r y q 0 ^ H. .0 e D  .w.9 + 0 H r Z e ",
"t E.r w ^ 0 t r  .^.0 r w H w.0 r 3.T ^ T q K w.R Y.t T t H.I.w R H.e e Z 0 t r 3.~.0 r r  .3.0 t w.T  .a q w.3.t U.r 3.t H.H.0 ",
"e i 3.Z 9 1 ^ ^.^ q 2 a e.r w w.q T G.*.q q m t J *.w H Y.Z :.r r t D Z 3 7 3.Y.s w 8 t *.r q  .r T T.w.q e T t w.D 0 w.Y.Z ^ e ",
"k ^ q r  .q 0.r q S.q t q t ^.q 3 E.0.3.T w ~.:.e Y.q t  .E.T.0 3.k 0 r ^ w 3.y w T.0 T q t ^.q 0 E.$.0.a y ^.T r E.q t 3.E.0.0 ",
"e ~.~.3.0 8 i ^.w.r 2 r Y.t 7 y 0 t  .T.r 8 r Y.^.i 7 e.H.W 3.t t ^.^. .0 = t ~.w.r 8 t ~.r 7 r q s w.H.e 8 r E.~.r 7 H.0.[ $.r ",
"p i r I.T.w Y.w t Y.0 v 0 q T.w * w.Y.3.r 5 Y.r r ~.r w w.^.w.q m t i H.*.r H.e t T.9 ^ 0 r E.0 8 5.Y.w.q q E.r r ^.w r w.~.H.0 ",
"w Y.Y.i 0 = r Y.k t 2 q H.T 3 t 5 r q t k 5 r w.w.t q E.:.U w.H e Y.E.r 9 = t ^.T r 8 w Y.a 7 r w r q U a q w *.w.t q E.:.s H.t ",
"y p ^ T.^ 9 w.t k w.9 T t 0 E t 7 I.3.t r w H.0 3.Y.r s 3.e.k q t t Z H.^ 9 w.t k w.7 ^ y q s r 9 I.:.s q r w.q H.Y.q k w.J Z 4 ",
"r ~.w.t t 8 r *.^ r 6 q m t r t 9 w.Z H t 8 r R.r t t I.H t :.t t U.J t t 2 r *.k r = q ^ a r r 0 3.T w.r 7 r G.q Z t Y.H t 3.w ",
"r r T Y.H.9 ^ t c c = r r t e.w 0 t :.w.r 0 k q :.w.q t w.w.t 7 t r ^ ^. .0 :.r ^ Z = r r m e.0 0 s H H q q v q :.0.q m w.H.r 8 ",
"r Y.T w t 0 :.H.e t = e I.t q t 7 w.e.t q 2 4 3.t r 0 w.k r T q t E.s q t 0 H w.r r = e I.r 0 t 0 e.w.t 5 2 0  .t r 3 w.t r D 0 ",
"q w 3.T.r 0 H.q D Y.7 H r 0 H.s 0 r t Y.r w Z 3 w.w.2 w t Y.s 6 w w *.T.e q :.q 3.I.8  .r w Y.t 5 t k Y.w r c 3 R.3.2 r U Y.T = ",
"s r.w 0 w.q t ~.t r 8 q D H w q 0 ~.Y.q w 8 r H.9 p r ~.k t w.0 H 3.q q H.q t ~.t r 2 q ^ H 0 0 0 ^.I.w q 2 t H.7 T r ~.U r w.0 "
};
