/* XPM */
static char *e2ee4ebf346b4910bf85294f87763ac36kxARQ2NaL2Eb9Al[] = {
/* columns rows colors chars-per-pixel */
"64 64 132 2 ",
"   c #0C3547",
".  c #0C354A",
"X  c #0F384B",
"o  c #11374B",
"O  c #123B4D",
"+  c #153D50",
"@  c #183F51",
"#  c #1B434F",
"$  c #164050",
"%  c #1D4454",
"&  c #1F4956",
"*  c #1F4558",
"=  c #204756",
"-  c #234B56",
";  c #284E57",
":  c #204758",
">  c #244959",
",  c #254B58",
"<  c #24495B",
"1  c #254A5A",
"2  c #244B5A",
"3  c #264B5B",
"4  c #224C58",
"5  c #234D59",
"6  c #224C5A",
"7  c #244C58",
"8  c #254D59",
"9  c #274D58",
"0  c #264C59",
"q  c #244F58",
"w  c #264E58",
"e  c #274F59",
"r  c #274D5A",
"t  c #254F5B",
"y  c #264E5A",
"u  c #274F5B",
"i  c #244B59",
"p  c #284C58",
"a  c #294F58",
"s  c #284E59",
"d  c #284C5A",
"f  c #294F5A",
"g  c #284E5B",
"h  c #2A4E5A",
"j  c #294F5C",
"k  c #294F5B",
"l  c #295157",
"z  c #255059",
"x  c #27525B",
"c  c #285058",
"v  c #295159",
"b  c #2A5059",
"n  c #295258",
"m  c #28505A",
"M  c #29515B",
"N  c #2B515A",
"B  c #2A505B",
"V  c #2A525A",
"C  c #2B535B",
"Z  c #2C515A",
"A  c #2C535A",
"S  c #2C525B",
"D  c #2D5459",
"F  c #28505C",
"G  c #2B515C",
"H  c #2A505D",
"J  c #2A525C",
"K  c #2B515E",
"L  c #2A525E",
"P  c #2D535C",
"I  c #2C525D",
"U  c #2D535E",
"Y  c #2D555D",
"T  c #2E555C",
"R  c #2E545D",
"E  c #2D565C",
"W  c #2F565D",
"Q  c #2D555F",
"!  c #2F555E",
"~  c #2E545F",
"^  c #2B515B",
"/  c #2F585E",
"(  c #30575E",
")  c #30565F",
"_  c #31565F",
"`  c #32575F",
"'  c #30565F",
"]  c #31585F",
"[  c #32595E",
"{  c #335A5F",
"}  c #32595E",
"|  c #385B5F",
" . c #2F5560",
".. c #2F5660",
"X. c #315760",
"o. c #315762",
"O. c #315760",
"+. c #335860",
"@. c #325960",
"#. c #325861",
"$. c #335A61",
"%. c #345961",
"&. c #345B60",
"*. c #355A62",
"=. c #355C61",
"-. c #375F61",
";. c #355C63",
":. c #375C62",
">. c #365D62",
",. c #355B61",
"<. c #385B61",
"1. c #3A5D61",
"2. c #385D63",
"3. c #395F62",
"4. c #395E64",
"5. c #385F64",
"6. c #3B5E64",
"7. c #3A5F65",
"8. c #396163",
"9. c #396065",
"0. c #3B6164",
"q. c #3A6264",
"w. c #3B6267",
"e. c #3C6265",
"r. c #3C6167",
"t. c #3D6366",
"y. c #3D6565",
"u. c #3F6665",
"i. c #3C6466",
"p. c #3F6566",
"a. c #3B6165",
"s. c #3F6769",
/* pixels */
"O m . O q - . - % . - . > q O . > O . q + . p O . m p . - . -   > - $ - . % = . % % . % % . = % - - . - . > . > m . o m X o m X ",
"m   O 9.. > . & - X - . { @ . p + . u O . u O . 4.O - . - . - . & q m . $ = . % % . = %   = Q   - = . - . - . u.. o m X o l . X ",
". O z , . q . > $ + - . ... > O . H + . u X . g , . - . - . - . 6  .. O > . % % . = % . = % -   - - . > . - . Q . m . o q . + u ",
"O u.. - . - . - . q - . q . > . 6 X . F X . G u - . - . - X ,   6 > . > . @ = . % %   % %.  -   d - . = O - . - o & . m . + p . ",
"E q . - . q . > . % %.o > . - . q . > X   W X - - . - . , . O , : -   - . > . $ = . - % q   , . - + % . p ; . - % o - o . m . O ",
"- - . - . - . % * . q $ q . - . > O % . m ,   - % O > . X m . @ ~ -   > . - X p . % %.. >   , . > . q O . _ . - - . - . q . O m ",
"- q . - . @ % . % % . % _ . - . - q   % O , . - O % . ~ . O F . O t.. - . > . q o q - . - o , . > O . m X . m , % X -   - . p . ",
"- Q . O - . % % . % %   = % -   > > . - . , . Q . g . O ; . O q . O q = . - . > $ O - . _ . > O . Z O . G O . Z q X - . - . - . ",
"> q q . % % . % % . % % . = D . > >   & . > . i.. X G . O p . + m . + 2.. > . > > X q . | $ . p O . G O . u X . t.O > . - . - . ",
"- > % % . % % . % %   = % . = # & >   > . - . - G . X G . O q . @ q . + q - . > % X - . , , O . p O . p X . ..X . m p . - . q . ",
"- q . Y * . % % . % % . & % . = , - . - . - . > % Q . . G . O m . + > . O *.. > & X -   , . t.O . q O . g O . u o . 1.. - . - . ",
"- > . & % > . % % . % %   % % X - Q . > . -   & - O ... X G . O q . + d . O q > % X > . > . - q @ . q O . q O . ~ . . Z - . > . ",
"- > . - . %.& . % % . % % . % % . t.. - . & . - & . ; m . o m . O g . O q . % ~ - . - . -   >   w.O . F O . p O . ~ o . 8.. - . ",
"O q . - . - % q . % % . % % . z . m . > . - . - - . - o _ . O p . O , . O % . m - X q   - . q   > G + . q O . G o . z . p . - $ ",
". - . > . - . ] = . % = . - O O $ >   - % $   > = o - . q Z . X g . O - . > . - % O , . - . >   > - q + . G O . z . - . , . - m ",
". z . - . > . - - - . % @ . q . > : . Q > . - X >   - . > o 4.. O > . , . , . > = Q X O - . -   - : . ] O . m . , . - . - . 8.O ",
"q O . q . > . - * % % . q . - o > - % = . @ % . p . > . - . q p . > . - . - . q m . o m . @ % o > - . - q . O % = . - . - , O X ",
"O . g . . q . > > X - . > . - . > p : . % =   % % . q . , . - - o -   = . > . 8.. X G . X q . > . q . - . > . - % X - . ] O . q ",
". q + . Z . + ~ & . &   > . > . X.: . $ = . % = . % $ . >.. - X - - . - . > C . o l . . z . O q . <.. > . - . - - . q - $   , O ",
"q + . g o . m > & X - . - . - $ m . % = . % % . = % . - G . ,   > -   - . >.  o m X O q . + p . O 4.. - . - . - = . ~ @ . , O X ",
"O . g O . Q . - * X -   > . X.= . % =   % = . % %   - $ , . -   < q . > m . o Z . O m . O p . O p > . > . - . = - C O o q O . m ",
". g O . Z c . - - . > . q @ q . @ = . % % . % % X = ] . -   -   : > . X.. X m . o m . O ~ . O l , > . - . q . - z O X , O . , O ",
"g O   *.. - . - : O - . G - . % = . % = . = % . , % - . -   -   > - p . o G . O p . O p . O Q   , - . > . - . 1.O . ; O X , O . ",
"X . G q . -   - % O - . *.. @ = . % %   % # . = Q . -   , . -   > ~ @ . p . O G . O g . O q q   , - . q . > . *.. q O   q O . m ",
". 9.O > . - . > . > - . , . q . % % . % $ . = l - . - . - . > . & 3 . - . . ~ . O p . O >.X ,   > q . u . - . q . > . , O . Z O ",
"m p . - . > . > . z p . > . - . - . * % . - % - = . - . q . % % q > . - . q . o m . O p ,   , . > % O . u - . - % O $ $ . m O . ",
"q q . > . q . q X X 8.X - . - . > . q . % Q . - = o q . @ % . = u - . - . - . p . O 9.. ,   - . q . g . O %.. - - o , . = O . m ",
"- & . > . * + . m o . m d . - . > < . @ % - . - @ @ O = . = $ . % *.  = . , . > . z , . - . > . q . O q . O z - = . - . - . - O ",
"- u . $ $ . p O . m X . *.X - . > - . & . - . z . p . % % . = % . p # - . - . - O % - . Z . q . o G . + > . O W - . - . - o - . ",
"> G % . q O . q O X m o . m q   > > . - . - . i.. % % . % %   = % . = ] . , . > = o - . t.. . G . o q . + u . O 4.X - . - . > . ",
"> > q O . g + . z O . m o X E X & > . - . > . Q - . % % . % % . = % . - $ - . > = o - . > G . o g . O q . + g . @ q , . - . = . ",
"- q . %.+ . > O . m O . C o . C - > . & . q . - q = . % % . % % . % % . = Q . > = o - . q . ;.. o q . + p . + p . O 8.. - . - . ",
"& > . - p O . g X . F X . m X . u q . - . - . - - % % . % % . % % . % % . = % > % o - . q . p G . o m X O p . + u . O q - . - . ",
"- q . > . 4.@ . u + . G O . G X . u.. - . - . - - . Q - . % % . % % . = @ . ; - - X - X - . q o w.. X G . O p . + q . @ %.. - . ",
"% > . > . > p O . u X . m O . G . Q . - . > . - - . > $ * . % * . = % . > O . _ % X - . - . >   u G . X g . O G . O > . Q . - X ",
". q . > . q . 9.+ . G X . G . % O > . > O * . , -   - . %.* . % = . % @ . - . - & X c   > . -   > q G . O q . O > . > . , . - q ",
". q . > . - . & g O . ~ X . - . > & . q m . $ $ >   - . - $ q . % % . - . - . > - z O . , . - . q = o Q . o p . q   > . - X ] & ",
"% $ . q . - . - : m O . q . -   > >   Q X o l . q . - . - . *.% . > o - . - . - z O . m o . - . > - . p m . $ @ : . > . - $ q . ",
"= . % $ . - . - -   >   , . ,   - , G . X m . O , . - . - . q z . > . > . - . 1.$ . - O X c . % O > . > O % X - = . - . X.= . $ ",
". % = . - O . _ : . - . , . ,   > E   o m X o p . O - . Q . > X % , . > . > q O . - $   c O . p .  .. > . , . - : X - @ = . % = ",
"% % . % % . d - : X -   - . -   t.. o m . O m . O m . @ *.. >   > - . - . 1.@ . q $ . , O . m o . s.. - . - . - = . G - . $ % . ",
"% . % = . = % - = X - . q . ; m . o Z . O p . O m   O q -   -   > -   - q O . - O . c O . h O . g q . - . - . - > % * . % * . % ",
". % % . = _ . = * X - . > . 8.. X m . o p . O g . O 9.. - . -   > - . _ O X , O . q O . m O . E 6 > . > . - . - , - . % = . % & ",
"% % . : % -   = & X - . - g . o m   O ; . + g . O q - . - . -   > - > O . c O . , O . z o . E o - - . > . - . Q - . $ % . % % . ",
"% . % ] . - . = : o q . t.. . Z . O m . O g . O 4.. > . -   ,   & G % . u O   p O X G O . m m   - - . - . > . 9.. @ = . % % . % ",
". q % q . - . - O % > . p . ; . X p . O g . O E - X - . - . ,   6 G . % $ . ; O . m O . ..X >   > > . > . q . m . q . $ = . % % ",
"% %.  q . , . -   m , . - . > . q . o m . O q - & o - . - X , o 6 > . & . : O . m O . m g . -   q - . @ % - . - @ @ O > . % % X ",
"p q . - . , . -   O 8.. , . - . > . ~ . O ` . - > . - . & O . m > > . - . q . > O . *.o > . ,   > X > . % Q . > * o q . @ : . = ",
"> q . > . q . O p . O q - . > . > % X . G q . > % O $ @ . u . . Z q   - . - . q . q z   > . > . q . % % . % % - % X - . q . $ % ",
"> q . > . o j . O q . $ >.. - . > > X 6 . > . q . q . q O . p + . 6.. - . > . - X - - . q . q . % % . % % . - p - X - . - . > . ",
"- Q O . j . O q . O l . $ l - . > & . - . > . >.. > O . q O . G o . Z , . > . - % O > . <.. $ % . % % . = % . - ... - . q . > . ",
"- q m . o g . + m . O , . O ]   & &   > . > . 9.O . u + . H O . m o . *.O - . > & X > . Z - . % = . % % . % % . q % > . - . - . ",
"- q . Q . O m o O l   O p . $ , - > . - . - . % G O   p + . u O . m O . E ; . > = o - . > % - . % % . = % . % $ . = ] . - . - . ",
"> > . q m . o m . O m . O z . O q - . - . > . - > p @ . q O . p O . m X . ] . > - . -   ; . *.= . % % . % %   - % . , % - . > . ",
", - . - o >.. . p X O l . O l   + 8.  - . - . - - . ] O . d O . m O . m . . p > & X - . > . , # p . % % . % %   % % . - m . = . ",
"- > . - . z E . X G . o m . O , . ;.. - . > . - - . - , O . g + . m O . ~ . O Q & X -   -   ,   X.: . % %   % % . & O . 8.. - X ",
"X > . - . q X 4.. X m . O m . , X q . - . q . > - o - . <.O . p O . m X X - . q - . - . - . ,   > g - . % % . % % . q . d . - % ",
". q . - . > . q Z . X Y . O $ X % - . > g . O & -   -   > p O . q O . , . - . > & % % . - . - . - q $ & . % % . q . , . - . q G ",
"o z . q . > . - > Q . O = . , X - > . ] O X z . - . - . , . 8.O . p . - . - . > q > . % @ . -   - - . %.* . - X -   - . - . 4.. ",
"m . X & . > . - * O , . , . - . - , , O X - O X , . - . , . - p . - . > . - . Q * . % % . - O O % - . > % $ . - = . - . ; ~ . . ",
". o G . $ % . p & X q   - . -   > Y O . , O . u X . z . p . q % + -   - . > $ p . % % . % % . p . g . > . > . & - X -   { . X m ",
"o l . O , . % ~ : . - . - . , . 9.O . , $ . > O   G O . 4.  - . > -   = . X.- . % % . % % . = $ . t.. - . > . - % . , ~   o G o ",
"g . O F . O - - : . - X - . - , #   , O   , O . g O . m - . -   : - . - $ > . % > . % % . % % . = E . > . > . - - O Q . o m . o ",
". O g . O ]   - = X & . - . q.O . c O . c O . u + . >.O q . >   > - . Q : . % % . % % . - % . = p > . - . - . - = ~ . X Z . O m "
};
