/* XPM */
static char *_7c2ab9d883947f3948270f96637b69caWNNGMYwbiMuWyXR[] = {
/* columns rows colors chars-per-pixel */
"64 64 188 2 ",
"   c #A67354",
".  c #AC7456",
"X  c #AE7957",
"o  c #A6755B",
"O  c #AD7659",
"+  c #A7785B",
"@  c #AD7A5B",
"#  c #B17656",
"$  c #B47A57",
"%  c #B17659",
"&  c #B37C5D",
"*  c #B97E5D",
"=  c #9F7961",
"-  c #A17760",
";  c #A37D65",
":  c #AC7D62",
">  c #A27E69",
",  c #B37E61",
"<  c #B97E60",
"1  c #AD805F",
"2  c #B5815E",
"3  c #BA825E",
"4  c #95816F",
"5  c #9F846F",
"6  c #968373",
"7  c #9B8574",
"8  c #9D8976",
"9  c #958679",
"0  c #9C8679",
"q  c #95897B",
"w  c #9D8B7A",
"e  c #A68166",
"r  c #AD8165",
"t  c #A5846C",
"y  c #AC846C",
"u  c #A7886F",
"i  c #AD896E",
"p  c #B58263",
"a  c #BA8463",
"s  c #B68967",
"d  c #BC8964",
"f  c #B3856A",
"g  c #BB8669",
"h  c #B4896D",
"j  c #BC8A6A",
"k  c #A38572",
"l  c #AC8772",
"z  c #A48A74",
"x  c #AC8B73",
"c  c #A38C7A",
"v  c #AB8E79",
"b  c #B28C73",
"n  c #BA8B72",
"m  c #B18F78",
"M  c #AF9077",
"N  c #A4917E",
"B  c #AC927B",
"V  c #B29176",
"C  c #B2937B",
"Z  c #BB977F",
"A  c #C08662",
"S  c #C08966",
"D  c #C18C6B",
"F  c #C09474",
"G  c #8D8D84",
"H  c #928E84",
"J  c #9B8F84",
"K  c #8F9084",
"L  c #8C938C",
"P  c #949286",
"I  c #9C9184",
"U  c #94948A",
"Y  c #9B958A",
"T  c #92988E",
"R  c #9D998C",
"E  c #869797",
"W  c #8C9692",
"Q  c #869A95",
"!  c #8D9994",
"~  c #8C9D9A",
"^  c #959691",
"/  c #989693",
"(  c #949A94",
")  c #9C9C93",
"_  c #939E9A",
"`  c #999F9B",
"'  c #A38F80",
"]  c #A49383",
"[  c #AB9583",
"{  c #AC9B85",
"}  c #A39689",
"|  c #AE9688",
" . c #A59A8A",
".. c #A69A8B",
"X. c #A29A8D",
"o. c #A3998C",
"O. c #AE9C8B",
"+. c #B39382",
"@. c #BF9580",
"#. c #B19986",
"$. c #B09D8B",
"%. c #A29D93",
"&. c #AB9D92",
"*. c #A09F99",
"=. c #8FA29C",
"-. c #9CA095",
";. c #95A19C",
":. c #9CA39D",
">. c #B2A08D",
",. c #A4A194",
"<. c #ACA294",
"1. c #A3A39B",
"2. c #A9A39C",
"3. c #A9A49A",
"4. c #8EA2A2",
"5. c #95A4A2",
"6. c #9BA5A2",
"7. c #96A8A5",
"8. c #9FA8A5",
"9. c #9FA9A6",
"0. c #9BA9A4",
"q. c #96A7AA",
"w. c #9AA7A8",
"e. c #95A9A9",
"r. c #9BAEAB",
"t. c #9EAFA9",
"y. c #9DADAB",
"u. c #9CAEAA",
"i. c #9FAFAD",
"p. c #9CAEAC",
"a. c #9DACAA",
"s. c #9CB1AB",
"d. c #9FB0AD",
"f. c #9EB0AF",
"g. c #9FAFB3",
"h. c #9AAEB0",
"j. c #9FB1B0",
"k. c #9EB3B1",
"l. c #9FB5B3",
"z. c #9BB0B0",
"x. c #A1A6A3",
"c. c #A1A6A4",
"v. c #A2AAA7",
"b. c #A5ABA7",
"n. c #A5ACA5",
"m. c #A1AAA5",
"M. c #AEAAA4",
"N. c #A3A9A8",
"B. c #A1AFAB",
"V. c #A5A9AC",
"C. c #A1ADAD",
"Z. c #A0AEAD",
"A. c #A2AEAE",
"S. c #A5AFAD",
"D. c #A4ADAF",
"F. c #A1AEAD",
"G. c #ACACAB",
"H. c #A4B0A9",
"J. c #A4B1AA",
"K. c #A7B2AA",
"L. c #A1B1AC",
"P. c #A3B0AC",
"I. c #A1B1AF",
"U. c #A2B0AF",
"Y. c #A0B2AF",
"T. c #A6B1AC",
"R. c #A5B1AE",
"E. c #A2B1AE",
"W. c #A1B1B1",
"Q. c #A2B1B1",
"!. c #A0B2B1",
"~. c #A3B3B0",
"^. c #A3B1B2",
"/. c #A1B3B2",
"(. c #A3B3B3",
"). c #A4B1B1",
"_. c #A4B1B2",
"`. c #A3B4B3",
"'. c #A6B4B3",
"]. c #A4B4B2",
"[. c #A2B3B4",
"{. c #A5B2B5",
"}. c #A3B4B5",
"|. c #A3B4B6",
" X c #A5B4B4",
".X c #A7B6B5",
"XX c #A0B6B0",
"oX c #A6B8B5",
/* pixels */
"n @.2.N.p p a a 3 $ & 2 & & 3 3 a & 3 * a g a j d d a a a d j 0.[ a a 3 p a a 3 3 p a a a a a a a d 3 3 d 3 3 3 d d s K. .s D d ",
"g @.M.V.p p a p p & & 2 $ 2 3 3 3 a 2 p a p 3 g g a a g a g n R.[ g d g g a d a 3 p a d a g a a a 3 3 d 3 3 d 3 3 s 2 J. .d d d ",
"& f G.S.f p p p 3 g p 2 g a 3 d g p p g g & a g j a a 3 g g n n.| D j D D d g A p p g g A a g d d 3 d d d d 3 3 d 3 s n.N s 3 A ",
"Y R S.g.X.' [ c c c z z z z z z z x v v v x x x x x i b x x v m.} x i l h l l h i i h x b l i i i i h i i i i b i i 5 J.-.1 i s ",
"c.c.C.D.C.S.S.S.R.S._.D.'.'.'.g.d.j.d.y.C.^.^.C.'..X X`. X X`.`. X[.].^.k.[.g.g.`.`.I.^.L.s.y.r.s.s.s.L.d.j.XXXXXXl.s.XXXXoXXXXX",
": r b @.x b b b h x b b m C m m [ z.&.| v C [ { #.$.$.$.$.O.O.$.$.$.$.$.$.O.$.$.O.{ O.#.3.`...{ { >.$.>.O.O.>.>.>.>.{ Z >.N B { ",
"p p g n n g g p p p p 3 3 p p A j d.B g p p p a g j j d d d d d g a A S d d g a p a d a Z oXi d s s j j j j j j d d d d d d d d ",
"p , < p n g p p p p p & 3 3 3 3 b C.C D A p 3 a p g g g g a a 3 3 d A A a a a 2 3 a a d C d.h a a g j j j F j j d d 3 3 3 3 d d ",
"p p p , p g p f f g p & * 3 3 2 h w.v d d p 3 p p g g a A a a a A d 3 A a 3 a 3 2 a g d C L.f g 3 j d d s s s 2 3 d 3 d 3 3 d d ",
"p p r p f f f f f f p p 2 2 2 3 h C.v g p p a p g S p 3 3 a a a g 3 3 A a 3 3 a a a g 3 C s.p a 3 3 s 3 3 2 2 2 2 3 2 d 3 3 3 d ",
"& p r f f h h f h f p p p 2 p p y w.v p p g a * , < p p 3 a a a a a * * 3 a a a g 2 a a C s.h a 3 d 3 3 3 3 3 3 3 3 3 3 d 3 d d ",
"p p f f h h b h f , & & * * & 3 f 0.v 3 p a p a < < < p 2 p p & * , * * & 3 a a g a 3 a C s.h d d d d 3 3 3 3 3 d 2 3 2 3 2 3 2 ",
"k z z 5 t t z z t e ; : @ : r : y w.c : : f , , , , , , , , , , , & p p * 2 2 p p p 2 2 v y.i 3 s 3 p d 3 2 2 3 s 2 2 2 3 s s s ",
"5.6.7.5.0.0.0.6.:.:.;.;.;.` ` -.` q.;.) ) ) ) %.%./ / X.) Y R R R } } Y Y R } R R } X.X.-.r.-.X.X.,.,.,.,.,.-.-.-.R ,.-.,.R ,.,.",
"> e %.a.N v v c c z v c N [ ] [ [  .....%.%.%.%.&.*.3.%.*.*.1.e.0.1.1.1.1.1.1.1.1.1.1.1.1.1.1.1.1.1.3.3.,.3.,.,.,.,.,.0.:.,.,.,.",
"# % ' ` + X $ % & & % $ 2 2 p 2 < p p & , , p g j D h g j g b 8. .h f s s s f f p s p p g p g s s p p 2 2 s d d 3 3 s :. .2 s d ",
"$ & c :.@ % % % $ & * & * & 3 & 2 2 2 & , & p a g D D g A A j :.N < p p p p 3 3 3 3 3 3 3 3 a p 2 3 a 3 & 3 a 3 3 3 2 :. .3 d s ",
"* & ] 6.& % $ # # % % % 2 & & 2 p $ 2 & p p < & < g g g A j j :.] g g g a < a < * 3 3 * 3 * * * 3 & p g 3 g A d A 3 d 0. .s d j ",
"% $ ] 6.& & % $ % # % * * 2 & & & & & p p & & , < , g a g g j :.' g g a a a A < * 3 a * * * * * * * & g d j d 3 3 3 d 1. .d d d ",
"& $ N ;.+ $ % $ $ # $ & & * 2 2 * 2 2 & & & * p , $ p g p a j :.' p p a a a 3 < a p 3 * * * * 3 A < p a d D A d S A d t. .d 3 j ",
"& & c 6.@ $ & % % # $ & & & & , 2 2 p & & 2 & $ & & p p g g h 1.[ p p a a p 3 a a a 3 < * * * * < * 2 p a d A j 3 d p n. .d 3 d ",
"o o w 5.+ + X X X O $ & % & , , 2 & & & & % @ $ X X , , < < h 6.] p a a p a a * * * p * * & * * * * 3 p 3 g j A d 3 d n. .d d d ",
"` ` 5.7._ ` _ ( / ^ ^ U P G H H P H J J I ] I ] ] N N c c c ' w.) c z z z z z z z z z z z z z z z v z k k k c z B B B y.:.{ [ #.",
"w w w I ] } } R R Y R X.X.) X.%.) 7.7.:.8.c.8.0.x.0.v.v.w.w.a.C.i.y.w.N.B.I.I.I.C.C.i.N.a.i.g.h.a.g.C.i.C.^.R.s.I.s.I.L.R.R.K.R.",
"O & % # # # # % $ p $ X % , , & : ;.J @ : : , , , : f f , , f , f f g f h g f f f f f f v w.t , p f p p s p p p g s g s s d s j ",
"% $ & $ $ % % % & $ % % @ % % , : ( w & % & & , p , % , , , , , , , < < A a g < < * * * x 7.: * * $ < g p * p a 3 3 d A S j j j ",
"& & $ , % . % % % % % % . @ , @ @ ` 8 & O O & & & & , , & & , & & < < * % * * * * * * % l 7.: & * < a a a a A A A A A g S d d d ",
"& & $ & % % % % % % # X . @ % & : ;.w @ O O @ & @ $ & & , , & , & , < * < * * * % * * & x w.: < * < < a < a * A a 3 a a d d d d ",
"& & & % 2 & * % & % % % % O & @ ; ` w @ O % % , , & & & , < < < < * * < * * * * < & $ $ M t.r 3 & 3 & * 2 * 3 3 * A a a d d d d ",
"2 & % O % % % & * % * % & % @ & : ( w O O < & & @ & , * p & * < < < * * * p * p < , < < M t.r 3 a 3 2 3 3 3 < 3 * 3 a a 3 a d d ",
"& X X O O % % & % % & & % $ & & @ ! 8 @ % , % & & , & p * & * < < a & & 3 p g p g , A a M 0.1 3 3 3 3 3 a a & 3 3 a a a 3 d d d ",
"H P H q q q q q q 9 q q q 9 q 9 9 ~ L q 0 7 7 7 8 7 7 7 7 k z z k k k k z z z v z x x z ] r.u u u u t t t u x l l h i i i i i b ",
"J / / 4./ / / / ^ ^ / / ( ( ^ ( / ( ( ( ^ ( ( ( ( ( ( _ ` ` 5.e.5.` ` ` ` :.` c.6.c.8.8.6.7.:.5.:.6.:.:.;.x.0.:.0.0.:.0.0.;.;.:.",
"O o c 4.> - % % : : : , , : , : : : , : ; : : : : p f f r : y ) } r l f l f f l m b b m m m x m v C #.C m b V V V V C ;.) m C C ",
". . 9 E - % % % % % % % , , @ @ @ & @ @ O % @ & & & & & , & & ( w & % , < < , < p a 3 A a g A a a g j g A g d a d g a ,.I a A g ",
"% o > / o % % % % % , % @ % & % @ @ , & & X @ & @ % & & & & , ( 0 % % < < % , , & a 3 a a a a a a d p a p p g g a a p :.] a a a ",
"% . > E o % % . % . % % & @ O O X O + X @ @ O & & X , & & $ f ^ c * * % , % % , & , p p a a a p p g g p a p a < 3 p 2 1.} d d d ",
". O 0 _   . . % % . % % X % O O O O @ X O O @ X & @ & , & & , ( c % < < < < < % % p 3 a a g g g g p 2 , p g a p a 3 g :.} s a a ",
"% O 7 _ . . . # # . . . O O O O O O @ & , & @ & & & & , , & & ( 0 , * % * < , < & X p g a g p p p & p p a p 2 2 a p p 1.} d d a ",
"% % 7 W . . . # . . # . X X % + @ @ @ & & & , @ @ O & , & $ p ( c % % * % % , < , & @ & , $ , p p p p , * & p g a a p ) I d d d ",
"w 7 H _ 9 > 9 > 6 6 = 6 6 6 6 6 7 0 6 7 w w 7 8 8 8 w w 7 z 0 ( U > 0 0 7 k k l k k t t t l t y y i r y r r r r @ r r -.R s p s ",
"5.` ( ( ~ _ ~ 4.! ! E E ! ( _ ! ! ~ ~ _ ! _ _ _ ;.;.;.5.5.4.4.` _ _ 4._ 5.5.5.5.6.6.7.5.7.e.w.7.0.7.7.7.5.7.7.;.5.7.7.e.7.=.;.;.",
"@ : : : : @ - @ @ @ ; : : @ : : ; ! J r f i r f y r p h h f y ; : : : , : p , f , f s h v 0.B b x V x x v x g i v M B C B B { { ",
"% % % O O O % O O O @ , @ O + @ @ ! c & & $ , & & $ p p < , , % @ & % % $ & & $ , * & < i 0.t a 2 2 3 & & & * * 3 3 3 3 3 3 3 3 ",
"# # % # O X O X O . & : O O O X : W 8 $ & & & , 2 p 2 & , X @ & & @ & $ * $ $ * % * * * h 6.e a a 2 & $ $ * A A 3 3 3 3 2 3 3 3 ",
"O # O # O O # O O . @ @ % : O X @ W 6 % & & & & $ & 2 & @ , X @ X X & & * * * 3 * < < 3 h 5.t a 3 & $ * $ * * * 3 3 3 3 3 2 3 3 ",
"% O O o   O X O % % % @ @ f X + + E 0 % , & & & p & p @ @ & & X % % $ & % * * & 3 3 a * r w.l , p & & & $ $ * 3 * * 3 3 3 3 3 2 ",
"& O O X X X X O O O & X @ @ f @ : ( 0 , @ p p & @ & & & & @ @ & $ & $ & * % % & & & p * h 5.t , p & & * $ * $ $ $ $ $ 3 3 3 d 3 ",
". O O O . O @ O . . @ @ : , : % : ! 8 , , & , & $ & & @ $ , @ @ @ & $ * , , & , & 2 2 2 y ;.t & 3 , & & $ & & & * $ $ 3 3 3 3 3 ",
"- - = = = = - - - - - ; ; ; ; ; > W q ; e > ; > t ; e > ; ; e e > : > ; : : : > r ; : : t ;.k f f , p p 2 2 2 2 2 2 2 2 2 2 3 2 ",
"W W W W W L L L W L L L W W W W W ! W W W ( W ! ! ! ! _ E ! ! E ! ! ! ! ~ _ _ ` ;.;.( ( ` e.;.T ) ( ( T ) T Y U P P R Y R R R Y ",
"> 7 q W t k k k k k k k > > k k k k k z k z k z z z k z k u w _ U c 0 c c c c c c ] ] ] ] } } [ } }  . .R X.} R Y Y R ;.;.R R R ",
"X O 0 L @ % & & % & : & % @ O @ @ @ & @ @ p @ & & & , & O O @ U 7 & @ @ X : & & & @ & % & & , & $ & 2 2 2 2 p a 2 s 3 R R 1 3 1 ",
"O O 0 W @ @ O O X X % @ & @ @ O @ @ & @ @ & p , & @ @ & @ X : L 6 @ O O , @ & , , , p & * & p p p p 2 & 1 2 p p s 2 2 R R 1 2 2 ",
"O % 0 ( o @ % & X & X @ O O O & p @ @ p , , p @ , @ & @ & @ : L 6 O @ @ 2 @ @ p & & & & p 3 3 p 3 p 3 3 2 2 2 a d 2 2 R P 2 2 2 ",
"    w ( o X @ X @ @ X O O @ & @ & @ @ & & & , & , @ @ @ @ , : W 6 , & , , & & & 2 2 & 3 2 2 2 2 2 2 p 3 2 3 3 a d 2 2 R P 2 2 2 ",
"    w ! o   o O X @ O + X & @ , & @ @ , & & , , , , : & & & r L 7 , , , & & , 2 & & 2 2 2 2 p 2 a p 2 2 2 2 3 p p 2 2 Y q p 2 2 ",
"    w ( O . X o @ X O O @ @ @ X & @ & : @ p f , & , & , & , r L 7 @ & & @ & & p p 2 2 & 2 p & p a , & 2 p a p a 2 a 2 Y P s s 3 ",
"    w _ o   O O @ O @ @ @ @ & @ & @ X & p , , , & , , , , , y L 8 , f @ , % & , , & 2 2 2 2 $ & $ p p 2 3 2 a 3 3 2 1 Y P 2 2 3 ",
"G G ! 4.^ G G G G G G G G H G U H H H H U G H K K H K G G G G Q W G G L K U L U U Y U P U Y U I I P q w I I w w w w 8 T T N w z ",
"U H P Y U P H K G K P G G G P U L Q L L U U U P U U U U U P U U U U U R ( ( ( ( ( ( ) ) ) =.5.;.` ( ( ) ;.;.( ! ! T T ;.=.=.( ;.",
"o @ o @ @ X X & @ & @ @ @ O @ & 1 W 8 r 1 2 1 p , @ 1 1 r @ 2 & p , , : @ @ @ @ r @ @ 1 r _ c , , : , r f r p s f p r f 1 s 1 i ",
"o o @ @ @ X @ & & & & @ @ @ X & r L 7 , & 2 @ & p @ & & p & & @ @ X @ + @ : @ @ @ $ & @ : ( w & @ p : 2 $ p 2 2 2 p p s 2 p g a ",
": @ @ O + & @ @ @ 2 & @ & @ & & @ L 6 : @ @ r @ @ & & & & @ @ @ @ + @ @ @ , , r : 2 p & r ( w X p @ & p 2 2 , p p p p r 2 s 3 2 "
};
