/* XPM */
static char *_cc81cf73ebc48b3dfd13418f1e11de1fM3N8dScu2xS9lA6[] = {
/* columns rows colors chars-per-pixel */
"64 64 166 2 ",
"   c #000000",
".  c #0B0200",
"X  c #030A0C",
"o  c #0C0C0C",
"O  c #131105",
"+  c #17150B",
"@  c #040E10",
"#  c #051416",
"$  c #051719",
"%  c #0A1619",
"&  c #06191D",
"*  c #141414",
"=  c #191919",
"-  c #2E0809",
";  c #2A260A",
":  c #322D0C",
">  c #3B360F",
",  c #3E3A0D",
"<  c #22211F",
"1  c #081E23",
"2  c #072327",
"3  c #092125",
"4  c #092529",
"5  c #0B292E",
"6  c #072428",
"7  c #0C2C31",
"8  c #172F31",
"9  c #0E373D",
"0  c #0F393F",
"q  c #232323",
"w  c #2C2C2C",
"e  c #313131",
"r  c #2A393C",
"t  c #4F0A0D",
"y  c #5B0C0F",
"u  c #6F0F11",
"i  c #660D11",
"p  c #453E12",
"a  c #4F4812",
"s  c #514A13",
"d  c #5C5516",
"f  c #635B17",
"g  c #675D18",
"h  c #766A1C",
"j  c #726419",
"k  c #4C5224",
"l  c #7D7022",
"z  c #0E3B41",
"x  c #11434B",
"c  c #134D55",
"v  c #134F59",
"b  c #15535D",
"n  c #30484C",
"m  c #264D52",
"M  c #395357",
"N  c #165A63",
"B  c #185C66",
"V  c #185E6A",
"C  c #2A5B62",
"Z  c #19636E",
"A  c #1A6671",
"S  c #1B6E7C",
"D  c #1C737E",
"F  c #2F6E75",
"G  c #4C4C4C",
"H  c #444444",
"J  c #545454",
"K  c #5B5B5B",
"L  c #5C4849",
"P  c #4C5F63",
"I  c #506264",
"U  c #636363",
"Y  c #6D6D6D",
"T  c #706F6B",
"R  c #707066",
"E  c #7C7C7C",
"W  c #767676",
"Q  c #901317",
"!  c #AB161A",
"~  c #C4191F",
"^  c #EC1E23",
"/  c #837922",
"(  c #8D811F",
")  c #948622",
"_  c #9C8C24",
"`  c #AE9E29",
"'  c #A29525",
"]  c #B1A029",
"[  c #BBA92B",
"{  c #C3B02F",
"}  c #D0BD32",
"|  c #DAC533",
" . c #EDD636",
".. c #EED837",
"X. c #E7D035",
"o. c #F5DE3A",
"O. c #F4DD37",
"+. c #1D7582",
"@. c #1E7A87",
"#. c #1E7D8B",
"$. c #207987",
"%. c #207E8B",
"&. c #2B7E8C",
"*. c #1F8393",
"=. c #218594",
"-. c #238D9D",
";. c #2B8796",
":. c #2492A3",
">. c #2696A9",
",. c #269AAD",
"<. c #289DAF",
"1. c #279EB0",
"2. c #289DB1",
"3. c #27A1B4",
"4. c #28A2B5",
"5. c #2AA9BD",
"6. c #29A6BA",
"7. c #768E92",
"8. c #2BADC2",
"9. c #2CB2C6",
"0. c #2DB5CB",
"q. c #2EBACE",
"w. c #2EBED3",
"e. c #30BED4",
"r. c #2FC0D5",
"t. c #838383",
"y. c #8C8C8C",
"u. c #949494",
"i. c #989896",
"p. c #9B9B9A",
"a. c #9CA6A8",
"s. c #99B1B5",
"d. c #A1A1A1",
"f. c #ADADAD",
"g. c #B4B4B4",
"h. c #BBBBBB",
"j. c #B3CBCF",
"k. c #BFD7DB",
"l. c #BBD3D7",
"z. c #C2C2C2",
"x. c #C8C6C7",
"c. c #CCCCCC",
"v. c #C4CFD1",
"b. c #C1D9DD",
"n. c #D2D3D3",
"m. c #DBDBDB",
"M. c #D3D9D9",
"N. c #DFDFE1",
"B. c #D5E6E9",
"V. c #D4E9ED",
"C. c #D7E4E7",
"Z. c #DAEFF4",
"A. c #D9F1F5",
"S. c #E4E4E4",
"D. c #EDEDED",
"F. c #EEEEF0",
"G. c gray97",
"H. c #F6F6F6",
"J. c #F4F4F4",
"K. c #F2F2F2",
"L. c #F9F9F9",
"P. c #FEFEFE",
"I. c white",
"U. c #FFFFFF",
"Y. c #FDFDFD",
"T. c #FFFFFF",
/* pixels */
"* o o o o o o o o o o o o o o o o o o o o o o o o o o o o o o o o o o o o o o o o o o o o o o o o o o o o o o o o o o o o o o o ",
".                                                                                                                               ",
".                                                                                                                               ",
"X                                                                                                                               ",
".                                                                                                                               ",
"X                                                                                                                               ",
".                                                                                                                               ",
"X                                                                                                                               ",
".                                                                                                                               ",
"X                                                                                                                               ",
".                                                                                                                               ",
"X                                                                                                                               ",
".                                                                                                                               ",
"X                                                                                                                               ",
".                                                                                                                               ",
"X                                                                                                                               ",
".   = q q q q < q q q = = q q q o q q q q q q q < * q q q q q q = = q q *     q q q q *         * q q q q o q q =               ",
"X   d.K.F.K.K.K.K.K.K.u.z.K.K.D.Y D.K.K.K.K.K.F.K.Y K.K.H.H.K.G.K.D.K.K.D.. w S.G.K.G.h.        u.K.K.G.G.J K.K.K.K             ",
"o   J P.P.P.P.P.P.P.D.Y P.P.P.g.u.P.P.P.K.m.h.z.m.J P.P.P.P.P.P.P.L.P.P.Y.c.e K.P.P.P.z.        p.P.P.P.P.K P.P.P.L.G X         ",
"    = D.P.P.P.P.P.P.u.x.P.P.L.q J.P.K.Y r C ;.&.m % g.Y.P.P.P.P.P.L.P.P.Y.Y.K D.P.P.P.z.        p.P.P.P.P.K P.P.P.P.z..         ",
".   o h.P.P.P.P.P.K.Y P.P.P.g.t.Y.h.M *.w.e.e.e.e.w.B P m.P.P.P.P.G.P.P.P.P.h.D.P.P.P.z.        p.P.P.P.P.K P.P.P.P.P.G         ",
"X     u.P.P.P.P.P.z.h.P.P.L.W L.d.4 5.w.e.e.w.5.9.w.w.$ w m.P.P.P.L.P.P.P.P.z.K.P.P.P.z.        p.P.P.P.P.K P.P.P.P.P.S.        ",
".     G P.P.P.P.P.u.S.P.P.S.y.D.<   x -.>.,.A     7 b   . L K.P.P.G.P.P.P.P.z.K.P.P.P.z.        p.P.P.P.P.K P.P.P.P.P.P.w       ",
"X     * P.P.P.P.D.E P.P.P.d.g.H ) : .                 y ! Q z.P.P.L.P.P.P.P.h.K.P.P.P.z.        p.P.P.P.P.K P.P.P.P.P.P.U       ",
".       f.P.P.P.t.c.P.P.G.w m.> o.o.o.[ ) ` ] +     ! ^ ^ ^ - P.P.L.P.P.P.P.J D.P.P.P.z.        p.P.P.P.P.K P.P.P.P.P.P.y.      ",
"X       G P.P.D.U P.P.P.d.f.p.] o.o.o.o.o.o.O.a     ~ ^ ^ ^ - P.P.G.P.P.P.t.w D.P.P.P.z.        p.P.P.P.P.K P.P.P.P.P.P.u.      ",
".       o D.P.f.S.P.P.L.Y P.Y o.o.o.o.o.o.O.g : X.: . ^ ^ ^ i N.P.G.P.L.E o w K.P.P.P.z.        p.P.P.P.P.K P.P.P.P.P.P.p.      ",
"X         g.P.u.D.P.P.n.d.P.T o.o.o.o.o. .f   f ..s       t u x.P.t.h.y.m.P.t.F.P.P.P.u.. X . X p.P.P.P.P.K P.P.P.P.P.P.E       ",
".         t.S.t.P.P.P.p.c.P.E  .o.o.o.o.| ;   O ) .           P.P.n.G.P.P.P.h.D.P.P.x.g.D.D.D.n.d.P.P.P.P.K P.P.P.P.P.P.J       ",
"X         H U m.P.P.D.K P.P.z.f o.o.' _ X.j         X x c Z % P.P.G.P.P.P.P.h.K.P.h.u.P.P.P.P.D.d.P.P.P.P.K P.P.P.P.P.L.*       ",
".         o K P.P.P.y.n.P.P.G.O o.o.,   p }       X <.e.e.=.u.P.P.L.P.P.P.P.h.D.z.f.P.P.P.P.P.D.d.P.P.P.P.K P.P.P.P.P.p.        ",
"X           f.P.P.K.Y P.P.P.P.z./ |     > ;       # e.e.e.F C.P.P.G.P.P.P.P.g.g.y.L.P.P.P.P.P.D.d.P.P.P.P.K P.P.P.P.K.=         ",
".           H P.P.z.h.P.P.P.P.P.R ] h _ ..| ` h   X e.r.x p.P.P.P.L.P.P.P.P.u.p.L.P.P.P.P.P.P.D.d.P.P.P.P.K P.P.P.P.p.          ",
"X     # 3 2 2 B.A.7.j.A.A.A.A.A.V.8 /  .o.o.o.O.d   2.b I V.V.C.a.a.B.C.n.n.K v.C.n.M.Z.A.A.A.s.7.C.B.A.B.M k.k.b.l.n 1 4 @     ",
".     D q.q.q.q.q.q.q.q.q.q.q.q.q.w.%.k f { O.O.(   7 c <.5.5.5.#.>.4.<.z   z ,.2.S 5 9.e.q.q.q.q.@.:.q.q.q.q.w.w.q.q.q.q.B     ",
"X   X $.e.e.e.e.e.e.e.e.e.r.e.e.e.e.e.r.>.# X # +.0.e.$.9.e.e.e.,.q.w.e.w.  q.e.e.e.v 0.e.e.e.w.e.*.>.e.e.w.w.e.e.e.e.e.r.A     ",
".     #.e.e.e.e.e.e.e.e.e.w.e.w.w.r.e.e.2.# z w.e.e.w.#.9.e.e.e.2.0.e.e.e.& e.e.e.e.=.0.e.e.e.e.e.#.,.e.e.e.e.e.e.e.e.e.e.A     ",
"X     @.e.e.w.e.e.w.e.e.e.e.e.e.e.e.e.e.<.# 0 r.e.e.e.@.9.e.e.e.,.w.e.e.e.%.9.e.e.e.z q.e.e.e.e.w.*.>.e.e.e.r.e.e.e.e.e.r.A     ",
"X     #.w.e.e.r.e.e.e.e.e.e.e.e.w.w.e.w.<.# z e.e.e.e.@.9.e.r.q.2.0.e.w.e.:.9 @.#.0 # V A A A A # X :.e.e.w.e.e.e.e.w.e.e.A     ",
"o     2 9 0 9 9 9 9 9 9 9 9 0 0 0 9 9 0 5 X z e.e.e.e.@.9.e.r.e.1.0.w.e.w.4 6.8.8.8.b 0.e.e.e.w.X   5 9 9 9 9 9 9 9 0 9 9 &     ",
"                c 9.9.9.9.9.9.>.S 9.9.9.#.  z r.e.e.e.$.9.e.e.e.1.0.w.w.4.  w.e.w.e.b 0.w.w.w.w.X       b 9.9.9.9.9.3.X         ",
"o               c e.e.e.e.e.e.4.+.e.e.e.=.  z r.e.e.r.$.9.e.e.e.,.0.w.0.7   w.e.e.e.z N V B B N         N e.e.r.e.e.8.          ",
"                v e.e.e.e.e.e.4.+.e.e.w.-.4 x e.e.e.r.@.9.e.e.e.2.*.Z #.8.  w.e.e.e.b 9.0.q.+.          N e.e.w.e.e.8.X         ",
"o               c e.e.e.e.w.e.4.+.r.e.e.:.>.Z e.e.e.e.@.9.e.e.e.2.=.0.w.e.X 0.e.e.e.b 0.e.w.#.          N e.e.e.e.e.8.X         ",
".               c e.e.e.r.e.e.4.@.e.e.e.-.Z x e.e.e.e.$.9.e.e.e.1.0.w.e.e.@ q.e.e.e.b 0.e.e.#.          N e.e.e.e.e.5.X         ",
"X               c w.e.e.e.e.e.2.+.e.e.e.=.  z e.e.e.e.$.9.e.e.e.2.0.w.w.w.X w.e.e.e.b 0.e.e.#.          N e.e.e.e.e.8.          ",
".               c 0.0.0.0.0.0.,.S 0.0.0.=.  z 0.q.0.0.+.5.0.0.0.>.8.0.0.0.X 0.0.0.0.v 9.0.0.$.          b 0.0.0.0.0.6.X         ",
"X               @ 2 4 2 2 4 4 1 # 2 2 2 $   X 4 4 4 4 # 2 2 4 2 & 2 4 4 4   2 2 4 4 @ 3 4 4 #           @ 2 6 4 6 4 3           ",
".                                                                                                                               ",
"X                                                                                                                               ",
".                                                                                                                               ",
"X                                                                                                                               ",
".                                                                                                                               ",
"X                                                                                                                               ",
".                                                                                                                               ",
"X                                                                                                                               ",
".                                                                                                                               ",
"X                                                                                                                               ",
".                                                                                                                               ",
"X                                                                                                                               ",
".                                                                                                                               ",
"X                                                                                                                               ",
".                                                                                                                               ",
"< = = = = = = = = = = = = = = = = = = = = = = = = = = = = = = = = = = = = = = = = = = = = = = = = = = = = = = = = = = = = = = = "
};
