/* XPM */
static char *_f2dd3d6e14b4351faaff14ca8c3c6b0rMCE5Po0b1OE94VY[] = {
/* columns rows colors chars-per-pixel */
"64 64 182 2 ",
"   c #210703",
".  c #230904",
"X  c #280D06",
"o  c #2B130E",
"O  c #2E1612",
"+  c #301713",
"@  c #351D13",
"#  c #391E14",
"$  c #372014",
"%  c #382116",
"&  c #3A2318",
"*  c #765E3D",
"=  c #78603F",
"-  c #7C6443",
";  c #86663E",
":  c #816547",
">  c #816947",
",  c #8C6C44",
"<  c #826749",
"1  c #856A4C",
"2  c #896D4E",
"3  c #916F49",
"4  c #94744C",
"5  c #98774E",
"6  c #97784F",
"7  c #98784F",
"8  c #896F50",
"9  c #8C7153",
"0  c #937653",
"q  c #987751",
"w  c #9D7D54",
"e  c #917658",
"r  c #A07F56",
"t  c #A07E58",
"y  c #9D8057",
"u  c #9E825D",
"i  c #A18157",
"p  c #A4845B",
"a  c #A8875E",
"s  c #A7885D",
"d  c #A9895E",
"f  c #9F8360",
"g  c #A28663",
"h  c #A88760",
"j  c #A48966",
"k  c #AA8B61",
"l  c #AC8B60",
"z  c #AE8B60",
"x  c #AB8C60",
"c  c #AB8C61",
"v  c #AB8D61",
"b  c #AB8C62",
"n  c #AB8C63",
"m  c #AD8C60",
"M  c #AD8C61",
"N  c #AC8D61",
"B  c #AC8C61",
"V  c #AF8C61",
"C  c #AF8D61",
"Z  c #AE8D61",
"A  c #AC8C62",
"S  c #AC8D62",
"D  c #AD8D63",
"F  c #AE8D62",
"G  c #AF8D62",
"H  c #AC8E62",
"J  c #AD8E62",
"K  c #AD8E63",
"L  c #AD8F63",
"P  c #AC8E63",
"I  c #AE8E63",
"U  c #AF8E63",
"Y  c #AE8F63",
"T  c #AF8E62",
"R  c #AC8D64",
"E  c #AD8E64",
"W  c #AD8E65",
"Q  c #AE8E64",
"!  c #AE8F64",
"~  c #AF8F64",
"^  c #AE8E65",
"/  c #AF8F65",
"(  c #AE8F66",
")  c #AC8C63",
"_  c #A68B68",
"`  c #AF8E68",
"'  c #B08E62",
"]  c #B08F63",
"[  c #B18E63",
"{  c #B08F64",
"}  c #B08F66",
"|  c #B18F69",
" . c #AE9064",
".. c #AF9064",
"X. c #AF9065",
"o. c #AF9165",
"O. c #AF9067",
"+. c #AF9066",
"@. c #AF9064",
"#. c #B19064",
"$. c #B09065",
"%. c #B19065",
"&. c #B09165",
"*. c #B19165",
"=. c #B29065",
"-. c #B39165",
";. c #B09066",
":. c #B09166",
">. c #B19166",
",. c #B09167",
"<. c #B19067",
"1. c #B29166",
"2. c #B19266",
"3. c #B19267",
"4. c #B19367",
"5. c #B09267",
"6. c #B29266",
"7. c #B39266",
"8. c #B29267",
"9. c #B29367",
"0. c #B39267",
"q. c #B49367",
"w. c #B19266",
"e. c #B09168",
"r. c #B19268",
"t. c #B19269",
"y. c #B29368",
"u. c #B39368",
"i. c #B29268",
"p. c #B3936A",
"a. c #B49368",
"s. c #B29468",
"d. c #B39468",
"f. c #B39469",
"g. c #B39569",
"h. c #B3946B",
"j. c #B3946A",
"k. c #B49468",
"l. c #B49469",
"z. c #B59469",
"x. c #B49569",
"c. c #B69569",
"v. c #B4956A",
"b. c #B5956A",
"n. c #B6956A",
"m. c #B5966A",
"M. c #B5976B",
"N. c #B6966A",
"B. c #B6966B",
"V. c #B6976B",
"C. c #B7966B",
"Z. c #B7976C",
"A. c #B6976C",
"S. c #B4956A",
"D. c #B9976B",
"F. c #B8966D",
"G. c #B7986C",
"H. c #B7986C",
"J. c #B8996D",
"K. c #B9996D",
"L. c #BB996D",
"P. c #B99A6E",
"I. c #B99A6F",
"U. c #BA9B6F",
"Y. c #BA9A6F",
"T. c #B99A6E",
"R. c #B99770",
"E. c #BB9B70",
"W. c #BA9C70",
"Q. c #BB9C70",
"!. c #BD9C71",
"~. c #BC9D71",
"^. c #BD9E72",
"/. c #BE9E72",
"(. c #BE9F73",
"). c #BC9D72",
"_. c #BFA074",
"`. c #BFA074",
"'. c #C09E77",
"]. c #C1A276",
"[. c #C4A479",
"{. c #C7A87C",
/* pixels */
"2.d.d.V.J.V.V.V.2.d d d d d s s d d Y  .9.#. .&.9.&.m.U.9.m.m. . .d J J J #.9.d d J d d J J d x d d x J m J d.d.d.m.m.d.m.~.T.T.",
"d.d.V.J.V...Y Y 2.Y Y 2.9.m.9.9.2.2.d d d  . .d J #.9. . .#.9. .&.x.&.&.x.x.m.m.J J J ] J J &.d.J J &.&.d.m.d.m.m.m.T.T.T.T.T.T.",
"Q.G.V.G.V.d.2.V.2.V.2.9.9.x.U.H.H.x.2.J.T.x.x.#.m.~.x. .#.#.-.H.T.U.U.U.H.&.&.T.~.U.H.9.x d J x &.m.T.d.x x.T.x.g.m.m.d.d.d.m.g.",
"J.J.J.J.J.Q.J.a.J.Y s d 9.9.9.d d V.V.V.9. .9.x.x.d i s #.-.d -.d 9.x.m.&.d v s s d x.9.....d.T.T.d.d.T.d.x m.(.(.T.(.~.m.d.d.m.",
"d.V.J.V.2.2.V.V.&.d x.x.9. .x.x.q.2.d  .] a { ] #.x.d z p p d a s s x x d v d &.c.H.&.&.V.G.2.9.m.J s J x J d.d.m.d.x.T.m.(.T.m.",
"..Y J.J.2.V.D.V.q.&.d &.&.9.J s d Y Y #.l a a Y x.#.z d C z d C -.J J -.x.T.&.&.T.x.x.H.2...d.2.J d.m d.m.(.T.T.T.~.T.m.m.T.(.(.",
"2.q...2.V.2.2.V.x.x.H.d J #.9.&.Y Y #.x.q.a.] l Y ] d C -.-.d ' q.&.' -.H.q.J x.c.T.H.2...9.2.d.m.J -.x.d.m.2.-.m.x.m.T.d.d.g.T.",
"2.] 2.q.] ] 2.q.c.q.d #.&.C d #.] z ] a ] ] Y l d C d d C ' d a p s s s i i i s i i p d d d d p s m x d x m -.N.H.L.x.-.-.J -.J ",
"8 2 : 1 > > : : > > - - : - 1 8 1 > 2 : > 1 1 1 2 1 : 1 1 < 1 1 , > 1 > : 1 2 1 > 1 8 1 1 2 2 2 2 2 8 1 < 1 1 > > 2 > - : : - : ",
"O O o o o o o o X o X o O o o O o o O o o O o o O O O o o o o o o o o o o o o o O O O o o o o o o o O o O O O O O O o O o + O O ",
"..2.2.V.d.2.Y Y  . .#.2.t.t.O.t.x.9.9.&...Y k k k v Y v v !  ...{ ]  .2.Y 2.d.#.2.! ! v s s  .9.V.V.a.t.a.V.Y 2.c.U.~.T.2.2.9.d.",
"G.A.2.V.V.2.x.V.x.x.x.#.l Y Y Y 9.&.J #.2.V.V.a.Y p ! 2.{ V.J.q.x.2.2.2.2.d i s d V.a.t.2.V.V.J.A.V.E.F.! 2.V.V.~.~.H.#.Y Y  . .",
"G.V.Y ! Y d d d Y 2.V.V.V.Y 2.Y 9.#.s s d  .s s s d Y ..Y Y Y s Y Y 2.2.d s s d Y Y 2.d V.V.2.#.d.2.V.2.Y V.V.V.V.V.V.V.J.J.V.V.",
"..Y 2.V.9.2.#.2.2.Y Y d s d 2.2. .d  .J 9.2.d Y 2.2. .d d Y Y Y Y 2.2.2.x.2.2.V.V.V.t.V.V.V.V.H.V.2.V.V.V.d.V.2.2.d.V.V.D.J.V.V.",
"V.J.V.V.V.V.V.V.x.9.2.Y Y 2.2.Y d  .#.9.x.9.Y Y  .2.2.Y v 2.2.Y 2.x.2.Y Y 2.2.Y Y Y 2.2.Y 2.V.9.d.V.2...2.V.2.2.V.2.2.G.J.J.V.V.",
"2...V.2. .2.2.Y 2.Y Y Y 2.Y  .Y  . .9.#.9. .Y Y 2.2.#. .2.V.a.2.Y 2.2.Y Y 2.2.2.Y Y Y 2.2.2.V.9.d.2.2.2.d.2.2...V.2.2.V.V.V.G.G.",
"G.Q.d.2.d.Y d v V.d.V.V.t.V.2.2.2.d.A./.A.V.V.2.2.V.d.2.2.Y 2.2.Y d ..V.V.V.A.a.9.#.2.t.2.V.t.V.V.V.d.2.a.W.A.V.V.a.V.V.2.V.V.V.",
"d.2.t.A.G.d.9.2.V.A.V.d.s s J.J.V.V.A./.G.J./.J.V.A.2.t.9.2.t.V.G.d s Y 2.2.! ! 2. . .! Y d Y ! 2.V.V.d.A.A.A.J.d.2.t.t.2.2.2.V.",
"t.p h ..t.h.d.2.! Y d ! Y 2.k d v 2.! 2.R ! 2.! ! t.` | t.t.t.2.d.O.O.t.t.t.t.! Y ! ! R Y ! l n k R ! k n n k h k ! n k n ! ! | ",
"k Y 2.t.t.! Y d p k v | Y Y k d d ! 2.! k k ! ! l k h a d d d k k k d p a p p a h p p k a p p h k k k ! ! ! { ` | 2.! ! ! l Y ! ",
"+ + + + + + + + + + O O + + + O O O + + O O + O + O O O O O o O o o + o o O o O O o o o o o o O o O + O O O o o o o o o O o o O ",
"- > : - - - > - - - - - - - - - - - - - - = - - = * = - - * * - - - - - - * * * = - * * = = - = * * * * * * * * * * * * * - - - ",
"G.t.A.a.| A.A.R.A.| h ^ R.B.^ | R.B.| R.} k ^ ` k } B.t.k ! | ` ^ a d p p t.{ k { J.d.k { B.{ ^ l k h ! a.^ ^ h h h h ^ ^ ^ h ` ",
"d 2./.J.F.t.! ! t.` k h ^ ` ^ ! h ` ! | ^ h.R.A.B.^ ^ t.l h h.| k ..V.a.J.F.A.V.t.G.V...t.2.! p a h t.t.| a.^ ^ B.B.k h | | | ! ",
"..V.J.V.d.V.Y ! n ^ B.R.B.h.k ! | | t.A.B.t.| ^ t.| t.| ! ! n ! | t.J.V.2.J.V.9.Y Y Y d d 2.2.{ ` ! t.a.A.a.` V.| | ! t.t.{ t.t.",
" .d Y d 2.2.Y ! h.B.B.h.t.a.^ | | t.B.! 2.t.A.W.W.| { l { A.R.B.A.A.2.d d 2.2.2.2.Y Y Y 2.2. .! | B.A.A.A.t.! k ^ R.a.Y t.a.2.2.",
"U.m.J.V.t.V.G.Q.A.J.B.A.V.J./.J.V.J.J.t.2.G.J.G.A.A.W.E.J.A.2.k 2.V.A.V.d  .V.9.V.V.J.2.d  .9.m.V.2.J.2.t.V.V.2.J./.t.x.J.J.A.J.",
"`.m.`.m.2.A.W.Q.J.W.A.R.W.W.V.2.t.J.A.{ 2.V.V.2.! V.J.J.J.V.a.(.J.V.2.d J./.V.V.V.2.V.J.x.2.9.x.2.t.k 2.l t.d.A.A.A.V.V.V.V.V.V.",
"U.U././.G.J././.J.t.V.J.J.J.J.J.V.V.V.2.G.J.J.G.V.J.W.V.V.V.A.a.V.V.| { m.9.9.m.A.A.A.V.V.V.A.W.J.J.V.V.A.a.A.W.A.t.R.R.V.J.U.U.",
"U.U.V.V.J.J.V.a.V.V.2.2.V.V.V.a.2.2.d.J.U.J.G.G.J.J.A.A.G.G.J.W.J.V.t.B.m.m.U.U.E.J.q.2.V.J.J.t.J.m.x.H.W.R.G.A.A.W.)./.J.U.U.`.",
"A.A.R.R.J.E.R.R.F.A.F.W.a.h.R.| t.(.'.'.W.R.R.A.A.R./.'.E./.R.| F.E././.E.W.G.W.R.R.R.R.A.R./.R.F.R.J.E.R.R.R././.R.(.(.(././.(.",
"9 e 9 9 9 9 8 9 e e 8 2 < 2 8 1 2 2 2 8 9 8 2 9 9 e 9 9 9 9 e e 8 1 8 e 8 1 8 9 9 8 8 8 1 8 9 9 1 8 9 8 2 8 8 e 9 8 8 8 8 9 9 8 ",
". . . . . . . .   .   . . .       .   .       . .   . . .   . . . . . . . . .       . . . . . . . . . . . . . . . . . . . X . . ",
"4 5 4 4 3 , ; ; , 4 4 4 4 4 4 4 4 3 , , 4 4 4 4 6 6 4 4 6 4 4 q q q q q 0 0 2 4 q q 4 3 4 9 3 q 0 4 0 3 4 q 0 q q 4 3 q 3 3 4 0 ",
"i w w w w w t p i i p l k k l l k k k n v s k p y s p y y p p i i p w w t t p t t t t h t t t ) h h h t h k t q w q 1 4 t i t t ",
"t w w w w w w w i i i t w i p a h i i s p w 5 4 q q q w p h p s k h h h h t a a h t h t t t t t t t t t t a a a t t t t p p t p ",
"s a w w i i p h h p ^ l a a h p y w w i p p p s s s s p p p p y w t p a h h a t t h t t w t w a t t t t h t t p t t t w 5 q r t ",
"p d d k k p k k l ^ h a p p s t t w 5 4 q q w y y y i p p h h v a p p a h k h h k k z z k k k k h h a a h t r t h h p i p a p s ",
"k p i i s p k p s a k h a a s s d d d { k ! ` ! k k s p s p s s a a p t t p a a a k k a t a s i t t r r t t p p h l ! l h k l l ",
"k k p k p t s p h k p p a p w s i w t t w w w w p i y i i p q w w w i i t p p t l k t t t t p a h a t a a a d a a k a i i a h l ",
"h k p s p h h y i p w q y p i p p y s i i p p p k k k k p k s p k h h k k k a p i i p h p p i p a a a ' l d d a a h a a l a a t ",
"w w p s s p i s p t w y i p a i p i p i p i i p i y w w w t i w w 5 5 q w y i i p i i p s i p t t t p p t r t i t t i i p p s p ",
"p p p s p s p p i i i t s a s r i s a i s s h p p s p k d p y s s s s i p s i i p p p p i y i t t i i i i p a p p s p s a p s p ",
"& % & & $ % $ $ # # # # @ @ @ @ @ @ @ @ O @ @ @ @ @ @ @ @ @ @ $ @ $ @ $ @ $ $ % $ $ $ $ % % @ % # # # # # # # @ # # # # # # # # ",
"2 2 2 2 1 2 > 1 1 < 1 2 , < 1 2 2 2 2 2 8 1 1 1 1 1 : > 1 > > > : : > 1 : : 1 > > > 1 1 : > 1 > , 1 : : : : : : : : < > < < > 1 ",
"U.U.U.U./.`.'./.(.(.E.E.G.U.U.].`.`.Q.`.`.U.`.`./.J.J.Q.J.U./.U.m.U.U.U.J.G.m.J.W.Q.J.J.E.(.G./.F.F.J.J.d.9.2.2.V.A.A.d.q.c.V.A.",
"U.J.U././.`.`.U.A.J.W.(.(.W.J.J.H.J.U.J.J.J.G.Q.`.`./.J.J./.~.H.U.U.Q.`.G.d.G.Q.W.J.(.].'././.`.].[.[.[.[.`.]./.E.J.Q.Q./.Q././.",
"[.{.].[.{.[.[.[.{.{.[.[.[.].].`.].[.`.`.[.`.`.`.].`./.`.J.J.~.~.G.m.m.m.J./.`.U.J././.J.V.A.W./.U.'.].].].]./././.'.Q.Q.Q./.Q./.",
"`.].[.].`.].].].].(././././.`.`.].(.].].~.].].~.~.(.(.(.`.H.~.`./.J.J.J././././././.].]././.].[.].].[.[.]./.`.`.].`.`.`.].`./.`.",
"U.J.U.J.J././.J.G.G.J.J.G.J.J.Q.(.~.T.T.T.T.m.x.m.m.T.T.H.g.m.~./.W.W.G.G.J.V.2...V.H.V.V.V.V.J.H.U.U.U./.U.J./.J.m.Q.J.V.2.9.V.",
"`.`.`.`.Q.W.W.W.W.W.A.V.J.G.d.V.m.x.x.H.d.x.T.T.x.x.T.m...9.m.m.V.V.V.d.2.V.J.D.2.d.V.V.V.V.V.a.x.V.U.U.J.J.J.F.J././.`.Q.Q.Q.Q.",
"G.J.U.m.V.d.V.A.V.d.V.V.V.d.G.G.T.T.~.T.m.T.T.T.~.T.T.T.U.U.H.m.d.V.V.J.J.J.J.D.J.V.V.J.V.t.V.2.x.H.V.x.V.V.V.V.G.G.G.G.G.G.J.J.",
"J.U.J.D.V.D.G.W.T.x.g.M.V.m.J.m.x.x.&.J #.x.2.2.x.x.g.g.m.T.H.m.V.V.U.U.E.'.U.U.J.D.V.c.D.q.q.] #.#.] ] q.a.q.2.q.q.D.F.G.J.W.W.",
"H.U.U.F.V.D.A.A.x.9.m.J.d.m.m.m.x.&.x.d.2.J.m.V.x.m.g.H.T.T.g.o.V.x.c.D.c.[ c.q.V.V.D.q.[ { q.] #.q.q.D.J.D.a.a.D.D.F.| 2.F.W.E.",
"n g j _ h h j _ j j _ R _ _ j j g g g g j j j g s j j j v j j j g f p f g g j h g h g t g g g g g p f g u p g g u g j g t h h g ",
"X X X X X . . . X X . . . . . . . . . . . . .   . . . . .   . . . . . . . .   .   . . . . . . . . . . . . . . . X . . . . . . . ",
").R.R.R.R.B.h.A.d.d.t.h.A.h.h.R.A.h.| | h.h.| | B.h.| | h.B.h.` h ^ n h n | | ` t.t.B.| ` ` ! t.| | t.| ^ ^ ^ n h ^ ` ! ` n n ` ",
"` h.R.W.R.t.h.a.h.d.t.t.h.B.` ` ` t.B.A.A.h.V.V.t.q.V.V.t.t.{ a.t.V.V.q.V.A.J.J.V.x.t.V.V.t.2.2.2.2.! 2.{ a.t.2.t.t.2.V.V.t.B.a.",
"G.R.A.A.A.A.V.F.G.G.d.G.A.a.t.A.A.J.J.J.A.J.J.D.W.E.U.U.W.J.J.J.H.V.H.J.V.V.V.V.D.V.V.A.H.F.V.2.x.2.2.2.t.V.2.V.V.D.V.V.G.J.A.F.",
"G.h.A.A.A.d.V.a.d.O.d.t.! ! ! 2.t.a.B.t.B.t.V.A.a.V.F.a.A.A.A.a.a.V.V.t.a.t.2.t.t.t.{ ` 2.a.2.t.2.{ t.a.a.t.t.t.t.2.a.A.A.a.t.V.",
"....2...2.Y ..` n l ! | ^ t.a.h.t.t.A.A.` B.A.A.A.V.2.2.{ ! 2.2.2.t.t.! ! ^ k k k n k h h h ^ ^ k p l t.| ! ^ k ^ ` ^ ^ ! ! ` { ",
"..d.d.d.2.2.2.! ! t.| ! ! ` | t.t.` | a.B.B.B.h.t.t.! { ! ` t.t.t.t.t.| ! ^ ^ ^ A.| ! B.t.^ n n ! | | ! ! | t.A.| ^ h.B.t.t.t.h.",
"d.d.....2.t.t.` ! | ! ^ ^ ! ! k k k p h h n ! ^ n ^ ^ n ^ n n n h l k ^ ^ ^ k ^ ! { | k ^ k k ! ! ! ! ! | ! { ^ ^ ^ ^ n ^ ^ ^ ^ ",
"R n R n h k k h h ^ | { | | ! ! ! ..2.! Y ` { t.| t.| | t.| | ^ | ! ^ ! a k ! { 2.! k ! ! ! ! | | ! ` | ! k ` t.{ l ! ! l k k ^ "
};
