/* XPM */
static char *b2a7d6bd61504696fc0602a51c064be6Kuwsb9tBCI9rHYF4[] = {
/* columns rows colors chars-per-pixel */
"64 64 256 2 ",
"   c #A9759E",
".  c #955FAD",
"X  c #956CA5",
"o  c #9B6CA6",
"O  c #9563AB",
"+  c #9A65AC",
"@  c #956CAB",
"#  c #9C6CAB",
"$  c #9664A6",
"%  c #9D74A6",
"&  c #9D7AA6",
"*  c #9672AB",
"=  c #9C74AB",
"-  c #9C7BAC",
";  c #9578A7",
":  c #9B6DB2",
">  c #9568B1",
",  c #9C73B2",
"<  c #9A79B2",
"1  c #8E60A9",
"2  c #A46DA6",
"3  c #AB6EA4",
"4  c #A36DAB",
"5  c #A96CAB",
"6  c #A474A4",
"7  c #AC73A4",
"8  c #A37AA5",
"9  c #A374AB",
"0  c #AA75AB",
"q  c #A37BAC",
"w  c #AB7BAC",
"e  c #AB7CA3",
"r  c #B374A4",
"t  c #BB76A4",
"y  c #B57BA4",
"u  c #BB7BA3",
"i  c #B37CAD",
"p  c #B575AA",
"a  c #A26EB2",
"s  c #A76FB4",
"d  c #A374B3",
"f  c #A47CB2",
"g  c #AB7CB3",
"h  c #AB78B6",
"j  c #B47CB5",
"k  c #B36EA9",
"l  c #CA7E9E",
"z  c #C27CA4",
"x  c #C37CAB",
"c  c #C779A7",
"v  c #D17CAA",
"b  c #E679A0",
"n  c #B57ACA",
"m  c #A97CF1",
"M  c #CF70F4",
"N  c #E77AF7",
"B  c #DF5CF6",
"V  c #6FE6AD",
"C  c #7CACF0",
"Z  c #55F5D4",
"A  c #77D1F3",
"S  c #49FAFB",
"D  c #55F1F6",
"F  c #72EFF6",
"G  c #64DDD2",
"H  c #3AF9F4",
"J  c #BD839F",
"K  c #9B83AB",
"L  c #9B84B2",
"P  c #A383AB",
"I  c #AB83AC",
"U  c #A988AA",
"Y  c #BC83A4",
"T  c #B384AD",
"R  c #BA83AC",
"E  c #B58BAD",
"W  c #BB8BAC",
"Q  c #B888A5",
"!  c #B793AD",
"~  c #A483B3",
"^  c #AB83B4",
"/  c #AC8CB4",
"(  c #A887B6",
")  c #B383B3",
"_  c #B38CB4",
"`  c #B48BBA",
"'  c #B987B6",
"]  c #AB9AB7",
"[  c #B997B6",
"{  c #AB9AAD",
"}  c #ABA8AA",
"|  c #A9A3B8",
" . c #B8A5B6",
".. c #A6B9B8",
"X. c #B4B2AD",
"o. c #A4B8A5",
"O. c #D5869D",
"+. c #C8909F",
"@. c #E9989C",
"#. c #EE919B",
"$. c #DBB29D",
"%. c #EEAD98",
"&. c #C383A4",
"*. c #C48AA4",
"=. c #C583AC",
"-. c #C68BA8",
";. c #C997A8",
":. c #D796A4",
">. c #C485B2",
",. c #C898B6",
"<. c #D49BB8",
"1. c #D487A3",
"2. c #E899BD",
"3. c #EC95AC",
"4. c #C6A3AA",
"5. c #CCA3BB",
"6. c #D5A6B9",
"7. c #DAB5BA",
"8. c #D4B5A4",
"9. c #E6A8A5",
"0. c #F7A8AA",
"q. c #E9A8B9",
"w. c #F9AAB8",
"e. c #E7B9BD",
"r. c #F6B9BA",
"t. c #F7B9AA",
"y. c #9FC79E",
"u. c #A6D396",
"i. c #B7CAB8",
"p. c #89DEB8",
"a. c #EDCC98",
"s. c #F5EF97",
"d. c #CCCAAF",
"f. c #EBC5BA",
"g. c #F7C7BA",
"h. c #F8D7B7",
"j. c #F5CFAB",
"k. c #D9ECB5",
"l. c #FBE9AD",
"z. c #FCF9A9",
"x. c #F9E4B4",
"c. c #FCF9B6",
"v. c #E8EEB5",
"b. c #D8CC98",
"n. c #BA9CC7",
"m. c #B496CD",
"M. c #ADA6C7",
"N. c #B6A6C9",
"B. c #AAB4C8",
"V. c #B9A6D8",
"C. c #A9BAD9",
"Z. c #BDBADA",
"A. c #B7B1CC",
"S. c #B89BE9",
"D. c #BA9CF7",
"F. c #AD96F4",
"G. c #95AFF0",
"H. c #ACA8E7",
"J. c #B7A6E8",
"K. c #B7B5EA",
"L. c #B9A5F7",
"P. c #A8B9F5",
"I. c #ADB0F0",
"U. c #9BBED2",
"Y. c #C898C6",
"T. c #D797C8",
"R. c #C798D6",
"E. c #D996D6",
"W. c #D48FD0",
"Q. c #E498D6",
"!. c #EB9BC9",
"~. c #C9A7C6",
"^. c #D6AAC6",
"/. c #C8B7CB",
"(. c #D9B7CA",
"). c #CAAAD7",
"_. c #D6ABD5",
"`. c #C3BCD5",
"'. c #C3BBDC",
"]. c #C9B7D7",
"[. c #D4B4D4",
"{. c #DBB4D3",
"}. c #D5B9D6",
"|. c #D4B3DB",
" X c #D4BADA",
".X c #DBBBDC",
"XX c #DCBAD5",
"oX c #E8A7C5",
"OX c #E7B8CA",
"+X c #F8BBC7",
"@X c #E4BCD5",
"#X c #FAB8D6",
"$X c #EFA8CF",
"%X c #CD8DE8",
"&X c #C79AE8",
"*X c #D08EEF",
"=X c #EA94ED",
"-X c #C6A8E9",
";X c #C9B8E8",
":X c #D5B8E7",
">X c #CCB0F0",
",X c #F4B0EB",
"<X c #99CFD2",
"1X c #BDC4DA",
"2X c #AFCCCF",
"3X c #92E6C9",
"4X c #B3E9D6",
"5X c #92CCF2",
"6X c #BAC7E8",
"7X c #BAC7F4",
"8X c #AED1EF",
"9X c #87E9F6",
"0X c #92F2F0",
"qX c #B2EDEF",
"wX c #D7C4C9",
"eX c #C7C4DC",
"rX c #D8C6D6",
"tX c #D0D4D1",
"yX c #E4C4CB",
"uX c #E9C6C8",
"iX c #F6C6C8",
"pX c #F8D9C6",
"aX c #E3C2D4",
"sX c #E8C8DA",
"dX c #F3CBD8",
"fX c #E9D6DA",
"gX c #F6D6DA",
"hX c #EDDCC9",
"jX c #D0EFD2",
"kX c #F7E6C8",
"lX c #FDFAC8",
"zX c #E8F5D7",
"xX c #FAF8D5",
"cX c #EBE7D2",
"vX c #C7C8E7",
"bX c #DAC6E5",
"nX c #C5C7F6",
"mX c #C7D5F8",
"MX c #D3D6EE",
"NX c #E7C9E4",
"BX c #EAD5E6",
"VX c #F4D8E6",
"CX c #EAD7F2",
"ZX c #F2D3EB",
"AX c #D0F1F0",
"SX c #FBEBEC",
"DX c #F8E5E8",
"FX c #FBF7EA",
"GX c #EAE6F5",
"HX c #F9ECF4",
"JX c #F6E8F4",
"KX c #FBF2F5",
"LX c #FBF4F9",
"PX c #FDFBFC",
"IX c #F8F8F5",
"UX c #E7F7EA",
/* pixels */
"S S S S S D G.*X*Xr.z.4X~.~.(.w.w.6.' _  .W ) ) R W E ,.W W _ E E E i I T w d * f j ) ' ' R >.m.' ) ) h , < f ( ~ / / / / W W ) ",
"S S S Z D D D F.M =XOXl.4X~.~.+Xr.q.5.W [ <.Q j E W ! [ _ W W ) R Q R g ^ I q , : d h ) ' i >.' j g ) ^ h , , < K ( / / / { ! W ",
"S F 3X3X3X9X9X5XF.M M Q.cX8XA.^.+Xw.q.! [ 6.<.=.W W ;.~.<.E W E W T E i w I q = : 9 d j j i ' >.n ( h ^ h , , * L K ( / _ / _ [ ",
"F 9X<X<XB.B.A.H.C.V.&X%XQ.BX4XB.5.OXw.q.,.5.q.:.-.W ! Z.(.E ! Q Q E Q i d q w q 9 # @ , j j j j j h h h f n d : , q L / ` _ _ / ",
"L.5X5X8XB.A.A.N.V.n.M.m.V.R.@XMX<X~.oXw.6.,.e.0.:.W ! 1XOX! _ _ ^ =.U Q i 9 q q 9 # > : 4 h j j h h f h h < n , : d < ~ / ^ / _ ",
"*XM F.P.C.A.M.M.n.m.] | | M.[ ~.vX<XA.OXr.<.5.f.0.;.;.2X{.5.! E T ;.I T y 0 8 8 8 * @ + + s j j h f d h d , , , : : = q ~ ^ ^ / ",
"#X=XN N L.J.M.n.n.n.n.| | | | ] [ [.8X2XOXoX5.7.j.9.:.1X^.^.,.E T ,.Q I Y 7 q 8 q % # + O + s j h a : , d , , , , : : , q ~ ^ ^ ",
"l.h.+X=XM *XL.-X%XR.m.M.M.] | | | ]  .vXC.^.^.5.f.s.%.tX}.fX,.! W ;.W w Q y 0 6 8 8 * # @ + $ a s : : : , : , , , > : : 9 q f ^ ",
"v.z.z.h.,XB B *X=XE.W.R.m.n.] ] | } { [ }.C.).5.2Xk.s.2X{.DX6.5.,.;.,.I U &.7 6 6 8 % * @ @ O O . > . > : : > d , , : : , f d h ",
"qXAXUXFXh.=X=XN =X=X=X=XW.R.n.M.] } } } ! ^.Z.-X'.F Z 5X{.HXuX6.6.5.6.Q K +.u 2 6 8 8 % = X + $ O . . > O > > : , , > : : , d f ",
"MXqX0X0XUXh.OX$X,X#X,X!.Q.W.W.n.[  .} } o.} ;.wXK.A D G.^.VXDXdXe.oXyX-.P Q l   6 & 6 8 * X @ X . 1 O 1 . . $ # , < * > > s d d ",
" X'.7XqX0XAXx.g.iXr.w.+X!.!.!.T.T.~. .} o.u...Y.6.wX6XH.T.uXSXDXdX(.VX;.e ! O.u 3   6 6 = * X @ $ $ . 1 . . . + > , * : : : , d ",
"aXXX X;X7X0XqXzXl.j.h.h.r.w.+X2.2.2.,.[ o.o.o...V.T.r.rXV.OXSXSXgXdXSX<.Q / :.&.7     6 8 * X @ X $ $ O . $ . + @ > * , : : s d ",
"uXwX(.[.|.K.8X9XqXzXv.v.v.j.r.w.0.w.2.Y. .......M.&XT.r.rX5.DXSXDXDXHX7.W P ;.O.r 2 6 7 6 = = X @ @ @ $ $ . . . > > > * : : : s ",
"iXyXyXwX(.).).K.5X9X4X0X0XjXl.j.t.t.3.2.Y.n.| B.C.H.S.W.r.].(.KXSXSXSXOX,.I  .+.u 3 3 6     = ; * X X $ $ $ . + + O > @ : : : : ",
"hXuXuXyXwX/././.`.1XF S H F 4XjXv.h.j.0.2.T.n.V.H.I.L.*XE.pXV.dXSXSXSXfX,.T { @.l t 5 2 7   7 % * # @ X $ 2 + . + 4 > : : : s , ",
"iXuXiXuXuXwX(./.(.}.Z.P.A S S F 0XjXhXh.t.0.T.R.S.D.L.D.D.!.jX).DXFXFXSX6.E ] 9.O.u 7 4 2       8 * # * X X $ o + + + : : : a d ",
"iXiXiXiXf.f.7.(.d.wXrX[.V.P.A D D 9XqXcXpXj.w.^.E.%XD.D.D.%Xr.6XXXSXKXDXOX,./ 8.#.z p 0 2 6 2 6 6 = = = X X X o o o + + + a : a ",
"uXiXiXiXiXf.f.OXf.uXuXwX(.[.-XL.P.G.5X0XMXcXhXt.q.E.%X*XF.L.E.hXK.aXSXDXsX5._ X.@.l t 7 4 2 2 3   % = % * * o # + o 4 + # : a a ",
"uX+XiX#X+Xr.r.e.f.uXf.iXyXaX(.{.|.-XD.F.P.8XMXcXg.r.T.%X*XD.*XoXcXZ.BXSXgX6.!  .:.O.t 7 0 4 4 3 3   & & = % % # 4 # + 4 a 4 4 a ",
"OX+X#X+X+X+Xr.r.iX+X+XiXiXiXdXaX@X(.|.-XF.F.P.mXcXpX+Xq.*X*X*X*Xr.MX'.VXdX6.,.] 8.#.l r 0 0 2 2 3 7     % ; = % 9 o 4 4 4 a a 5 ",
"OXOX+XdXiX+Xg.r.+X#X#X#X+Xr.iX+XiXiX@X}.:X-X-XI.7XMXdXr.!.Q.*X*XQ.h.6XXXyX^.5.[ 4.@.O.u p 5 2 2 2 3 3   8 & 8 % 9 9 4 # a 4 s s ",
"}.OXOX#X+X+X+Xr.#X,X,X,X#XdX+X+Xg.l.l.h.@X@X>X>X>XL.MXfXr.w.!.E.E.9.jX].OX^.5.[ 4.%.#.z r 7 7 9 2 2 3     8 & & 8 0 9 9 5 5 5 s ",
";X XOXiX#X#X+Xw.#X,X,X,X#X#X+XiXh.l.z.z.c.pX@X.X:X:X-X;XBXg.0.q.Q.2.j.8X[.^.^.~. .$.#.O.z r 7 6 6 2 2 3   y 8 P - 8 w 9 s s s s ",
"0X7X|.(.aX+XOXr.r.#X,X,X#X#X+Xg.h.l.z.z.c.lXxXfXsXdXNX@X;XBXkXt.3.!.0.cXC.{.5.Y. .d.@.#.O.t r 7 3 6 3 2 3 t   P q P q w 0 d 0 h ",
"AX0X5XK.}.aXyXuXf.uX#X,X+X+X+Xg.h.l.z.z.c.lXlXxXUXBXNXdXdX.XvXcXl.0.0.a.<X].~.Y.N.i.%.#.O.z t r 7   3   3   u   P P P e 0 0 0 d ",
"kXUX0X9X7XnX:X|.(.OXdX#X+XiXg.h.h.l.z.c.c.lXlXxXFXIXGXVXBXgXNXbXAXz.a.a.v.I.~.,.~.X.b.@.#.l z t r y r r 3 r r y e 8 P P w f g 9 ",
"OXiXcXUXF F 8X>X).).@XiXh.h.x.x.l.l.l.c.lXlXlXxXxXIXPXUXGXSXVXsXXXvXzXs.s.3XJ.Y.R.X.d.%.#.O.l u y y r r k 3 r r y I P P q 8 h f ",
"d.].OXiXcXqXF 5XP.L.J.XXpXc.c.l.z.l.x.pXpXkXkXkXfXFXUXAXAXIXPXPXgXNXvX4Xz.k.A ~.R.A.i.$.@.O.&.&.u u u r p r 3 r   J I U f f f w ",
"<.j.tX/.OXpXzX0XF F G.>XrXgXh.c.s.z.l.pXuXdXdXgXuXuXfXAXAXAXAXAXLXDXZX X6X4XF G.-XH.C.d.$.:.&.&.&.u u u r p 7 r y y J T P ~ f f ",
") >.9.d.2X_.r.pXUXAX9XA L..XyXc.z.z.z.lXiXaX@XyXaXXX}.wXAXAXAXAXMXLXKXgXaX-X5XI.L.I.G.wX$.@.;.*.&.&.&.z u t r r r y Y Y U P P ( ",
"~ g ' >.8.3X8X_.OXpXkXzX8XI.|.XXkXlXxXxXxXpXuX(.(.(./.[.].rXmXmXmXmXGXIXVXdX@X).R.S.H.<Xi.9.@.*.+.&.&.&.z t t r r y Y J Q E U ( ",
"f ` < h ' ,.i.3XL._.g.h.hXAX7X>XsXBXFXIXIXxXxXwX(.}./././.`.eXeXvXmXmXCXPXVXVXOXT.R.n.H.B.i.$.:.;.*.-.&.z u z t k r y &.*.-.! _ ",
"/ ^ ^ f = j !  .2X8X&XQ.$XpXzX7XK.NXdXHXPXPXIXAXtXwX/./.`./.`./.'.vX6XnXMXPXgXVXsX^.Y.R.J.<Xb.%.:.1.+.&.&.Y z c y y y &.*.-.! E ",
"[ ` ( f g d j ^ ! X.2XI.&XQ.iXDXAX>XbXZXVXIXPXIXMXbXeXwX/.Z.`.Z.Z.Z.'.;XvXCXHXVXHXdX^.5.R.L.3Xb.#.:.+.+.*.&.x z z p u Y *.+.-.>.",
"^ / _ ( ~ 9 9 9 ^ Q } ..6XK.&X$XpXxXMX;XNXZXHXPXPXGXbXeX`.`.'.'.Z.`.'.Z.].bXJXSXDXKXNX^.,.m.F.3Xa.#.:.;.*.*.z z c t R Q Q ! W >.",
"h ~ ` / L f q 9 = 9 T ! } B.K.-X$XiXc.AX8X:XCXDXPXPXLXMXrX`.`.'.Z.'.Z.Z.'.'.bXCXKXKXLXNX~.Y.%XG.3Xa.3.;.+.*.=.z c c &.Q Q Q Y W ",
"U ^ f f ` ( L f 9 = * f _ ! ..M.&XE.r.l.UXqXnXCXDXHXPXHXBXvX`.`.vX1X6X1X1XZ.'.NXSXIXLXLXNX5.Y.R.G.p.a.:.4.+.*.Y z x c &.*.! Q R ",
"{ U f < < ^ ^ L ~ < 8 * - ) E { M.S.E.q.h.zXqX8XbXJXJXPXLXCXeXeX'.eXeX1XeX1XeX].NXBXKXLXJXsX~.Y.V.G.V 8.;.;.+.*.x z x =.*.W *.W ",
"( / K L = < ( ^ L L q 9 ; - ( ' { M.m.E.oXiXxXAX5X;XCXJXSXPXCXbX'.eX'.eX;X'.eXeX X.XsXDXIXHXaX5.Y.%XF.3X8.,.;.+.*.z c x &.*.W -.",
"I ( K K L L * < ) f L ~ & ; ; ~ n m.M.M.R.^.r.pXAX8XP.bXJXLXLXGXbXeX'.'.nXvXeXvXvX'.XXsXVXPXHXaX6.Y.R.F.<X4.;.;.;.&.x x x =.>.>.",
"E / / L L K < * < ) j < L P K ; ; n n ` M.m.T.oXh.cXqX8X;XCXLXLXKXCXbXeXbXtXrXtXvX1X;X X@XVXPXJXaX5.,.R.S.i. . .;.-.=.&.x x -.*.",
"U ! [ / K L ; * , , f i f < P K ; & ( n m.] M.R.oXg.kXAX5XK.bXIXPXLXHXNXvXvXvXvXtXvXvX;X]..XZXLXHXaX5.<.Y.S. .[ 4.;.-.=.u x =.>.",
"/ / / { { L L < * 9 9 = g h < ~ K & * ( n m.] | n.^.e.pXAX9X7X:XCXHXPXKXGXbXvXvX8XvXvX6X;X]._.sXJXHXaX~.<.Y.S. . .4.;.-.>.=.=.>.",
"~ ^ ~ f f f & - 6 e e 5 : 9 f < P U 8 ; a n n m.] M.R.oXg.zX0X8X>XbXJXPXPXJXMXvXnXvXmX6XvXnX>X|.aXJXLXrX6.5.Y.n. .! 4.;.-.>.v x ",
"f g h j i ' _ _ I U U 7 9 # = ( < L U P # # k n Y.] | V._.f.kXqX8X;X:XCXPXPXPXCXbXvXvXvXmX7XnX>X|.XXDXPXrX6.6.Y.,.[  .4.;.=.>.>.",
"h j j ' T T I U U U U e r 3 4 # < L < K P = + s j x ,...C.&XoXh.AXqX;X:XNXLXPXPXJXbX;XnXnX7X7XmX;X|.XXZXPXBX6.<.,.n.[ ! 4.:.>.>.",
"( ( ) ) i R T T U U Q y r k 3 5 : , < - K I q X # j v :.y.G G.Q.iXcXAXK.:XNXLXPXPXLXBX:XnXnXmXqX7X;X_.[.BXPXBX~.<.,.,.[  .;.-.>.",
"( ^ n j x x =.z &.=.z t k p k 5 4 4 4 = 8 L w w = 9 0 c #.u.V C M oXpXtX7X;XbXJXPXPXPXCX:X:XmXmXmXnX>X).{.fXLXBX^.5.<.;.[  .4.;.",
"_ ( T ' x >.>.>.x u z t k k k 5 5 4 4 4 9 = L q W * @ s c #.$.V G m =Xf.zXmX7X:XBXLXPXPXHXbX:X>XnXnXnX;X).^.sXLXBX6.6.;.,.[  .,.",
"m.^ ^ ^ w I i g I I I e w 9 4 a 5 k k 7 6 2 9 K ~ W ~ X 4 c b #.u.Z G.M oXh.jXK.:XXXDXLXPXLXZX X:X;X:X>X)._.[.sXPXsX^.6.:.,.Y. .",
"g ( ( P ~ - - q e e I e 8 & & = = 9 4 5 5 4 3 * ; ~ E / ; X &.v O.8.p.G.D.$Xg.tX7X;X@XsXLXPXPXBX.X:X:X:X|./._.^.BXPXrX7.5.,.,.N.",
"I ^ ^ ^ q - - = & &   e e 8 8 8 K P   8 9 = = * * ; q T ! < @ j z l :.y.<XF.%Xe.tX8XJ.[.yXDXPXKXCX.X|..X.X[.|._.(.NXLXrXe.6.,.,.",
"I ^ g g q w 8 - ; X ; 8 8 8   8 &   ; ; * * * = @ * X = ) W ~ X T i x 1.y.G C M !.wX1XK.-XOXVXPXHXZXNXbXbX|.|._.{.(.VXLX{.6.6.,.",
"U ( q q w w 7 0 8 7 6 6 6 8 8 8 6 8 & 6 * % * * * * X ; * 0 ) { 8 6 i x O.8.V 5Xm E.7.tX6XJ.^.fXPXVXZXNXNXNX.X_.[._.{.sXLXwXe.6.",
") ^ ^ ( f w i i e r 7 6 8 8 & 8 6 6 & 6 % % # % ; * % % % 6 0 y _ 0 g E u O.Q ..C.S.W.(.tX8XL.[.sXIXHXVXZXZXNX{.|.[.[.^.BXJX(.e.",
"^ j f h 0 j p w w 8 8 , * = * = * - = % % = = 9 = 6 2 9 6 o o 9 w ! / _ ,.E u W  .B.V.W.!.wX8XI._.yXSXKXJXLXJXbX}.|.[._.(.sXBX(.",
"^ g g g 9 9 d d d 0 a # a 4 4 # 4 # 4 # # 4 # # # = * o o 2 o 4 4 g >.` ` _ ' I R ! | V.%XT.f.tXG._.aXDXHXHXPXHXsX|.}.}.{.{.@XfX",
"h ^ f f f f q 9 = 8 = 0 0 0 7 8 8 = 4 6 o o o @ @ @ # # o # 9 % 2 2 0 i ,.) ` _ ) _ _  .N.R.<.7.jXA ).OXdXDXPXLXZX@X X X{.}.(.@X",
"~ ~ f f - q - , = = = , * = = = = = 8 q w w 9 8 4 4 4 # o # @ @ @ # # 6 i ,.` ` ` ( ^ ` [  .Y.Y.6.hX5XJ.{.OXgXDXHXNX@X X}.|.{.(.",
"' W E ) I i g w w w 0 w w 7 w w 7 0 w g i w w w h 0 5 9 0 9 4 2 4 0 9 9 0 i ,.[ ` n.^ ) ` [  .Y.Y.3.f.4XG.Y.oXiXgXDXBX@X}. X}.[.",
">.>.W W W _ W W R R Q R R R R R R R u R y i i y i r p w 0 e 0 w g 0 0 0 7 0 i W ,._ ` ` ( _ [ ,.,.Y.6.8.jXA J.{.iXiXVXdXXXXX X}.",
"` ` ` ^ ^ j ^ I T T ^ i I T I i R w w I g g g g f g q I P I q w 0 9 0 q g 9 0 9 >.,.,.` ` ) ^ ` ,.,.Y.<.q.k.9XG.-XOXOXgXdXXX}.}.",
"^ ^ j h g ) R ) i g i i g g i i j i ^ i j i w w g q f w w i j p i w w w 0 w 0 d d j ,.,.' m.` ^ ` ,.<.>.<.9.a.4X5X&X_.OXdXVX@X[."
};
