/* XPM */
static char *result[] = {
/* columns rows colors chars-per-pixel */
"64 64 235 2 ",
"   c #000000",
".  c #000000",
"X  c #000000",
"o  c #11120F",
"O  c #151414",
"+  c #000000",
"@  c #1B1A19",
"#  c #1E2118",
"$  c #25241D",
"%  c #28281F",
"&  c #282723",
"*  c #2D3129",
"=  c #393836",
"-  c #443F38",
";  c #04493C",
":  c #285E3E",
">  c #086A3A",
",  c #1E623D",
"<  c #04733C",
"1  c #0C743C",
"2  c #057B3E",
"3  c #0A7C3F",
"4  c #11753F",
"5  c #46443D",
"6  c #53483E",
"7  c #112D4D",
"8  c #053749",
"9  c #1D3D4D",
"0  c #192C54",
"q  c #1C2D5C",
"w  c #053B58",
"e  c #19355A",
"r  c #2C3754",
"t  c #1D3363",
"y  c #1A326D",
"u  c #193968",
"i  c #2C3867",
"p  c #233569",
"a  c #243976",
"s  c #243A79",
"d  c #024448",
"f  c #0A5946",
"g  c #0F514B",
"h  c #15554B",
"j  c #024352",
"k  c #074659",
"l  c #17485A",
"z  c #195456",
"x  c #274B48",
"c  c #394F4C",
"v  c #255245",
"b  c #27495A",
"n  c #295556",
"m  c #39585A",
"M  c #0A6A47",
"N  c #037C41",
"B  c #0A7946",
"V  c #137542",
"C  c #157845",
"Z  c #13704C",
"A  c #277749",
"S  c #39774A",
"D  c #326F50",
"F  c #084363",
"G  c #194664",
"H  c #185566",
"J  c #274668",
"K  c #364869",
"L  c #265366",
"P  c #385666",
"I  c #2B427A",
"U  c #364675",
"Y  c #2D5172",
"T  c #385376",
"R  c #2E6262",
"E  c #494645",
"W  c #5A5349",
"Q  c #474B56",
"!  c #4D5150",
"~  c #595A56",
"^  c #61574B",
"/  c #635C53",
"(  c #695F5A",
")  c #447253",
"_  c #776E49",
"`  c #6A655A",
"'  c #766A5C",
"]  c #4C546D",
"[  c #434E75",
"{  c #475378",
"}  c #4A686C",
"|  c #686D6A",
" . c #757268",
".. c #686877",
"X. c #6C7479",
"o. c #737479",
"O. c #857769",
"+. c #847A7E",
"@. c #0B803F",
"#. c #038443",
"$. c #0A8342",
"%. c #048C45",
"&. c #098D45",
"*. c #038B48",
"=. c #148749",
"-. c #059347",
";. c #099346",
":. c #0A9747",
">. c #059648",
",. c #069B49",
"<. c #0A9C49",
"1. c #16984D",
"2. c #1B9553",
"3. c #27844D",
"4. c #298C50",
"5. c #398857",
"6. c #289956",
"7. c #37985B",
"8. c #07A04A",
"9. c #0BA24A",
"0. c #14A84B",
"q. c #27A456",
"w. c #35A55D",
"e. c #399C61",
"r. c #4C8B5B",
"t. c #489764",
"y. c #549365",
"u. c #699D74",
"i. c #759275",
"p. c #49A767",
"a. c #55A76C",
"s. c #51B16C",
"d. c #57A972",
"f. c #76A87C",
"g. c #60B071",
"h. c #68B778",
"j. c #75BA7E",
"k. c #D9BE1E",
"l. c #DABE26",
"z. c #D7BC38",
"x. c #DDC124",
"c. c #DCC12C",
"v. c #8A8577",
"b. c #968879",
"n. c #889576",
"m. c #A4A168",
"M. c #D4BC49",
"N. c #D1B753",
"B. c #CCB869",
"V. c #D9C14D",
"C. c #223D87",
"Z. c #1D438E",
"A. c #1D4797",
"S. c #374F87",
"D. c #384881",
"F. c #204592",
"G. c #214698",
"H. c #234B9D",
"J. c #264EA1",
"K. c #2651A2",
"L. c #2B53A4",
"P. c #3155A6",
"I. c #365CAA",
"U. c #385EAB",
"Y. c #3861AD",
"T. c #495886",
"R. c #525E87",
"E. c #4F6084",
"W. c #5B6488",
"Q. c #5C6994",
"!. c #666B88",
"~. c #6B728B",
"^. c #74778A",
"/. c #656A92",
"(. c #687496",
"). c #767A98",
"_. c #506DA9",
"`. c #677CAA",
"'. c #768384",
"]. c #7C819B",
"[. c #78B283",
"{. c #6C82A9",
"}. c #6E86B5",
"|. c #7789B3",
" X c #76C383",
".X c #888783",
"XX c #938F89",
"oX c #9B9386",
"OX c #888699",
"+X c #9A979B",
"@X c #A59789",
"#X c #A69B95",
"$X c #8BA988",
"%X c #91AD8D",
"&X c #91B18F",
"*X c #99B594",
"=X c #AAA68D",
"-X c #ACA594",
";X c #B6A899",
":X c #A6BA9B",
">X c #8589A4",
",X c #8B8CA1",
"<X c #8A90A1",
"1X c #9796A6",
"2X c #818CB0",
"3X c #A29DA7",
"4X c #A4A2AB",
"5X c #ABA5A9",
"6X c #B4ABA9",
"7X c #A9BEA3",
"8X c #BCB4AA",
"9X c #AEABB2",
"0X c #B3ACB2",
"qX c #B9B4B6",
"wX c #CAB78F",
"eX c #C3B7AB",
"rX c #CABDB4",
"tX c #C4BCB8",
"yX c #8DC38F",
"uX c #9FC598",
"iX c #A4C69D",
"pX c #B5C7A8",
"aX c #C5C5A9",
"sX c #CEC2B5",
"dX c #CCC2BA",
"fX c #D2C6BC",
"gX c #D5C8BA",
"hX c #D5CABD",
"jX c #C5D1B6",
"kX c #CDC6C1",
"lX c #D5CCC2",
"zX c #D9CEC3",
"xX c #DAD0C5",
"cX c #DAD4C6",
"vX c #E0D7C8",
/* pixels */
"                                            . . . .     . . . . . . X . X .     . .                                             ",
"                                                                                                                                ",
"                                    ' b.b.b.+.+.+.o...!.!.!.!./..././.~.!./.~.o.OX+.@X .                                        ",
"                                    ( Q Q Q i [ [ [ ] ] U s C.Z.C.C.C.C.C.C.a a i [ ] Q                                         ",
"                                    W _ _ ` O.v...o.^.n..X'.L.I.I.P.P.P.L.J.C.J.C.C.D.K .                                       ",
"                                    ` ' ....!./.(.{.}.}.}._.Y.Y.I.I.I.I.P.L.J.J.G.G.G.T.@                                       ",
"                                    <X>X).].)._.}.|.}.}.}._.Y.Y.U.U.I.I.P.P.L.J.J.A._.C.[ O                                     ",
"                                  ../.).].(.G.J.P.L.P.I.Y.Y.Y.Y.U.U.I.P.P.P.P.J.J.G.2XQ.s                                       ",
"                                 .^.W.R.R.T.C.C.H.A.H.K.K.K.K.K.P.L.K.J.K.K.A.A.Z.Z.|.3XC.K O                                   ",
"                                ] 0 q q p p C.C.Z.Z.Z.A.F.F.A.Z.C.G.U.`.|.].{.(.Z.I !.<XI U *                                   ",
"                                i r 0 q q p y p p t a p p t 0 q ..@XN.V.k.l.x.c.V.B.T W.E.I Q                                   ",
"                                r 0 0 q q q p q e t u p u t p ..B.z.l.x.l.l.c.x.k.N.L Y ^.J Q                                   ",
"                                r 7 0 q q u u u e t u u u J b.M.l.l.l.l.l.l.x.x.V.r.k l +X} Q                                   ",
"                            .   r 7 7 e e e u w w u F F l X.N.l.l.l.l.l.l.l.c.c.m.4 l L '.X.!                                   ",
"                                e 7 8 7 w w w w w w F F ~.B.l.l.l.l.l.l.l.x.c.B.A > i T g i.|                                   ",
"                                7 7 8 8 w w w j w j F F =XM.l.l.l.l.l.l.x.l.B.i.< M [ { g m ~                                   ",
"                                9 8 8 8 8 j j j w j j } B.c.l.l.l.l.x.x.V.B.y.3 4 z ^.Y h n c                                   ",
"                                c 8 8 8 8 8 j j w j k '.M.l.l.l.l.x.x.V.aXf.=.3 C L ,XT K x c                                   ",
"                                8X| 8 8 8 j j d d d P wXc.l.l.l.z.N.wX;X5.3 $.3 n ..qX).~.K Q                                   ",
"                                #XwX.X} z g d d d 8 i.B.c.z.N.B.wX;Xn.3.@.@.C C L 4XxXkXT.].(                                   ",
"                                c | =X;X;X=XXX.Xi.+.;XwXwXwX=Xn.r.A 1 1 $.=.A L 4XzXqXW.).0Xo.                                  ",
"                                v ; v ~ v.oX:X;X;X-X-X=XoXy.A > > > 1 1 4.D Y (.lXzX,Xy kX>X|                                   ",
"                                v ; 9 e p b n g ; ; ; f D D S S S S S ) Y T T.s tXcX).W.kX>X~                                   ",
"                                v 9 ^.+X1X!.K h ; ; ; f z n } m m m } K >XqX(.y lXxX(.>XqX>XQ                                   ",
"                                x ^.dXeXrXOXK ; > g v J { /.[ i 1X4X1X^.zXzXR.C.zXcX).9X9XQ.Q                                   ",
"                                Q 6XOX] #X/.] n b b K a ,XlX9X).hXhX1XOXzXlXT.D.zXcX).kX3XS.!                                   ",
"                                ..eXU q i i a W.3X0X<XU (.fXlXlX9XR.S.6XzXtXS.T.zXzX/.fXtX|.~                                   ",
"                                o.rX{ q i ~.6XrX8XdXkX1X/.rXlXlXT.s T.rXzXqXC./.zXlXW.0XcX0Xc                                   ",
"                                o.rX1Xi { eXfX3Xa +XlXkX/.lXzX9Xa s /.hXzX9Xs (.xXkXT W.9X} c                                   ",
"                                ..rXrX~.K 5XlX).y XXlXlX).zXzX1Xa s (.hXzX4Xs ].lX4XI L G M : .                                 ",
"                                c 3XgXtXi 6XrXW.y 3XzX0X1XzXzX).a a 1XlXlX2Xs R.D.u g > > < :                                   ",
"                                r ^.gXgX!.eXtXT.i 6XfX).0XzXkX(.s s 3XqX,XT.J G f f > M A u..X                                  ",
"                            .   v K eXlXOXrX9XU !.rX9Xs kXlXqXT.a s T.Y H M M > M A i.:XgXzX%X                                  ",
"                                , e 5XzXOXsX4Xt 3XfX/.s xXxX4XD.a s H M < < M 5.$X8XlXpX$Xu.)                                   ",
"                                ) K 0XrXXXlX<XT rX^.a T.9X/.C.H Z N N B t.%XhXpX[.r.B < N N Z                                   ",
"                                X.W.rX3X+XlX<X].!.J u D.S.H M N N 3.u.*X7X*Xa.4.$.< N N N #.,                                   ",
"                                eXdXtXT.6XhX(.Y h M l H B N =.t.*X:X[.t.=.*.#.*.#.#.N #.#.*.V                                   ",
"                                rXhXOXt sXhXW.R 2 2 M N #.7.*XdX[.7.N #.*.*.*.*.#.#.#.#.#.$.V                                   ",
"                                +X^.l G hXfXS.R N 2 1 t.pX*X7.@.#.#.%.#.%.-.*.*.%.#.#.#.#.*.V                                   ",
"                                } z M L hX1XY A 2 A f.%Xa.1.%.%.*.*.%.%.-.*.*.*.%.#.%.*.*.*.V                                   ",
"                                 .2 M Y ~.H B 2.f.&Xt.&.,.-.%.%.*.>.-.%.-.-.-.%.%.%.%.%.%.-.V                                   ",
"                                 .3 B p G N 2.%X&X4.$.%.<.,.-.-.>.>.>.-.-.-.-.-.-.%.%.%.*.*.V                                   ",
"                                 .r.B G *.e.pXa.#.&.%.-.8.<.,.>.,.8.>.-.-.-.-.-.>.%.%.-.*.-.1                                   ",
"                                 .u.B B a.*Xp.*.%.%.&.,.8.8.8.,.8.,.>.>.-.,.-.,.>.%.-.-.-.-.C                                   ",
"                                 .5.y.a.7Xe.>.-.-.&.-.:.9.9.9.<.8.,.,.-.,.,.-.,.>.>.-.-.-.%.V                                   ",
"                                 .B *XaX6.*.-.;.-.&.;.:.<.9.8.:.,.,.<.-.:.:.,.-.>.-.-.-.-.-.3                                   ",
"                                  2 e.t.*.;.,.>.&.-.-.:.<.<.<.<.8.<.8.<.,.-.:.-.-.-.-.-.-.%.V                                   ",
"                                 .1 $.&.-.;.>.>.;.-.-.:.9.<.<.:.,.8.8.<.:.,.,.:.-.>.-.-.%.:.u.                                  ",
"                                  < #.&.-.-.<.:.;.;.;.<.9.<.<.<.9.<.9.:.<.:.,.:.>.-.*.-.&.d.%X                                  ",
"                                  < #.&.-.;.:.;.;.;.:.<.<.:.<.9.<.<.9.<.<.<.;.:.>.-.-.-.&.d.f.                                  ",
"                                  > @.&.&.;.<.;.;.;.;.<.9.0.<.<.<.9.9.<.<.<.:.:.:.-.-.-.&.g.&X                                  ",
"                                  < @.&.&.&.;.;.;.;.;.<.<.9.9.<.:.9.9.<.<.<.:.:.:.-.*.-.*.d.%X                                  ",
"                                  > 1 @.&.&.;.;.;.;.;.<.<.<.9.<.:.<.<.<.<.:.:.:.-.-.;.;.&.a.%X                                  ",
"                                  > 3 @.&.&.&.&.&.;.;.:.0.<.9.9.:.:.:.:.<.<.:.:.q.6.1.7.6.a.:X                                  ",
"                                  1 @.$.&.&.;.;.;.;.;.;.:.w.s.w.g.p.q.g.h.g.h.yXh.s.j.h.1.#.=.                                  ",
"                                  > @.$.$.&.;.;.;.&.:.0.0.p.h.p.j.g.p.g.h.p.s.h.s.w.6.6.%.%.=.                                  ",
"                                  3 @.@.&.&.;.;.-.,.8.0.0.q.q.1.0.q.1.q.q.1.<.:.-.-.-.%.%.&.S                                   ",
"                                  y.3 @.&.&.;.:.&.8.9.0.0.0.<.:.<.9.<.:.<.:.;.;.:.:.%.$.wv                                      ",
"                                    vX:Xf.a.7.1.&.:.9.0.0.0.<.:.9.<.:.:.<.<.6.7.s. XpXhXvv                                      ",
"                                    vXgXgXaXaXpXuXuXyX X X Xj.j.j.j. XyXiXiXpXjXvXvXhXhXdv                                      ",
"                                    vXgXb.b.#XeXeXeXsXgXhXhXxXvXcXhXgXsXsXsXeXeX;X#X#XeX6v                                      ",
"                                    vXgX;XO.O.O.b.b.b.b.b.oX@X@X@X@X@X@Xb.@Xb.v.b.@XeX#Xv .                                     ",
"                                     v= O.oX;X-X@Xb.b.b.O.b.v.b.b.b.b.@X@XoXv.v.|   .v                                          ",
"                                                                                                                                "
};
