/* XPM */
static char *_0fd403c83af445f8346f208eb892086A6ooS62KW3G0MHJz[] = {
/* columns rows colors chars-per-pixel */
"64 64 161 2 ",
"   c #171614",
".  c #191613",
"X  c #1A1916",
"o  c #1E1E1C",
"O  c #201E1C",
"+  c #21211F",
"@  c #252424",
"#  c #282626",
"$  c #292827",
"%  c #272728",
"&  c #292728",
"*  c #2A2A2B",
"=  c #312E2E",
"-  c #33312E",
";  c #2E2E30",
":  c #302F31",
">  c #323233",
",  c #383634",
"<  c #393836",
"1  c #363639",
"2  c #38373C",
"3  c #3A3A3C",
"4  c #403F3D",
"5  c #43413D",
"6  c #3E3D41",
"7  c #403F44",
"8  c #454444",
"9  c #484745",
"0  c #4B4946",
"q  c #48474B",
"w  c #4B4B4B",
"e  c #514F4E",
"r  c #52514E",
"t  c #4E4D53",
"y  c #545453",
"u  c #595756",
"i  c #595855",
"p  c #545259",
"a  c #5B5B5A",
"s  c #615E5C",
"d  c #5F605A",
"f  c #62615E",
"g  c #636362",
"h  c #686561",
"j  c #6A6966",
"k  c #64606A",
"l  c #6C6C6A",
"z  c #71706E",
"x  c #747473",
"c  c #797776",
"v  c #797876",
"b  c #7B7B7A",
"n  c #807F7E",
"m  c #81817F",
"M  c #858482",
"N  c #898784",
"B  c #878885",
"V  c #898986",
"C  c #8D8C8B",
"Z  c #908F8E",
"A  c #91908C",
"S  c #959493",
"D  c #9B9B96",
"F  c #9D9D9B",
"G  c #A19F9D",
"H  c #A2A19F",
"J  c #A3A3A2",
"K  c #A9A6A6",
"L  c #ABACA6",
"P  c #ADADAB",
"I  c #B0AFAE",
"U  c #B1B1AE",
"Y  c #B4B4B3",
"T  c #B6B9B4",
"R  c #B9B9B6",
"E  c #BCBCBB",
"W  c #BFC0BC",
"Q  c #C1C2BE",
"!  c #BEBEC0",
"~  c #C6C7C3",
"^  c #C4C5C2",
"/  c #C7C8C4",
"(  c #C9CAC5",
")  c #C9C9C6",
"_  c #CACBC7",
"`  c #CBCCC7",
"'  c #C9C9C6",
"]  c #CDCEC9",
"[  c #CCCCCA",
"{  c #CDCDCB",
"}  c #CECECC",
"|  c #CFCFCD",
" . c #CFCFCE",
".. c #CDCDCB",
"X. c #CFD0CD",
"o. c #CFD0CE",
"O. c #CFD0CD",
"+. c #D0D1CD",
"@. c #D1D1CF",
"#. c #D0D0CE",
"$. c #D1D1CE",
"%. c #D1D1D0",
"&. c #D2D2D0",
"*. c #D2D2D1",
"=. c #D3D3D1",
"-. c #D2D3D0",
";. c LightGray",
":. c #D3D3D2",
">. c #D3D4D1",
",. c #D4D4D2",
"<. c #D5D5D3",
"1. c #D4D5D2",
"2. c #D4D5D5",
"3. c #D6D5D5",
"4. c #D6D6D4",
"5. c #D6D6D5",
"6. c #D7D7D5",
"7. c #D7D7D4",
"8. c gray84",
"9. c #D7D7D6",
"0. c #D7D7D7",
"q. c #D6D6D5",
"w. c #D5D5D3",
"e. c #D7D8D5",
"r. c #D7D8D6",
"t. c #D7D8D6",
"y. c #D8D8D7",
"u. c #D8D8D6",
"i. c #D7D7D8",
"p. c #D7D7D8",
"a. c #D8D8D8",
"s. c gray85",
"d. c #D9D9D8",
"f. c #D9D9DB",
"g. c #D9DBDA",
"h. c #DADADA",
"j. c #DBDBDA",
"k. c gray86",
"l. c #DADADB",
"z. c #D8DAD9",
"x. c #DADCDB",
"c. c #DCDCDB",
"v. c gainsboro",
"b. c #DDDDDD",
"n. c #DCDEDD",
"m. c #DDDDDF",
"M. c gray87",
"N. c #DFDFDF",
"B. c #DBDBDB",
"V. c #DEDEE0",
"C. c #DFDFE1",
"Z. c #DFDFE1",
"A. c #E0DFE1",
"S. c #DFE0E2",
"D. c #E0E0E2",
"F. c #E1E1E3",
"G. c #E2E2E4",
"H. c #E3E3E5",
"J. c #E1E1E3",
"K. c #E6E6E8",
"L. c #E6E6E8",
/* pixels */
"  + ; * @ % ; % @ % l P B.4.U ) a.n.K.a.P # + * * @ * = % @ @ y n a.n.a.y. .<.<.<.o.3 X > * % % @ @ o ; > f I v.3.V.J.[ R W <.j ",
"X   @ % @ % ; % $ P D.) R [ %. .a.D.K.P > $ o * + + * > ; * x a.f.G a.a.n. .e.<.] 9 $ + @ 1 > @ @ @ @ 1 E v.S R i.4.A.4.) W x > ",
"X   X @ @ * ; * L a.x.a.^ J a.a.a.D.Y > * $ * O % @ * ; * b 6.6.B.;.F %.<. .%.] q * @ @ @ * * * @ + : Y v.A.J.D Y B.V.V.+.x @ ; ",
"X o o X * % * K n.V.D.D.D.R U 4.y.Y * $ % @ $ % @ O ; ; b v.3.k.m.V.4.J n.+.] q * @ % @ * $ o * * ; R %.V.K.A.n.G E J.A.x ; > ; ",
"o o + @ @ % P %.A.v.a.A.4.%.R C F * $ * @ % % * * X # c %.V.#.%.A.B.B.4.S Q q @ * * % * * * * % 2 R %.B.B.n.6.<.=.D H z * * 2 6 ",
"o o @ ; % ; >.>.=.+.<.+.4.] ] Y = @ + * % ; : > @ @ X L a.a.n.k.n.<.a.a.#.0 @ @ * * * % @ @ @ @ 5 a.2.>.V.i.#.^ ^  .C * ; 1 : : ",
"o + @ * % % x 4.6.%.a.n.4.` <.v.E 1 o % % * > 2 % ; % * T 6.K.A.N.n.%.v.a. .y @ @ % * o * @ * * * V J.4.A.A.a.%.) %.B.C > 1 * * ",
"  + @ * % @ @ x a.k.V.D.a.+.%.<.n.! 1 % * * : * @ @ @ @ * Y v.v.n.=.=.v.a.a.+.5 @ * ; @ * % > @ * w S i.n.J.n.#.R Q ) =.n * ; @ ",
"o o % ; @ @ @ @ c <.i.n.4. .] 4.N.A.R 2 * * > > ; % @ * @ 8 E k.a.} a.v.v.4.a.6.y * * % % % ; * % 1 @ C k.A.n.6.P L x.6. .V * O ",
"o @ * * @ @ * % @ z p.V.a.+.=.4.v.A.` Y 2 * * @ o @ @ o $ 2 # R #.~ a.V.n.<.a.J.3.a * @ * @ 1 ; * @ % o C n.a.a.+.x.c.<.] %.m O ",
"@ @ * ; * * % % * * x 4.%. .%.4.] n.=.=.E 2 = > @ * * % * ; @ > T ^ 6.v.a.%.a.A.v. .y o * @ 1 > @ % @ 1 @ V V.n.y.L.D.a.+.) +.N ",
"j @ ; @ @ % * @ * ; @ x ] ` =.4.6.=.` #.=.E > * o @ @ * > * @ * # P ) 3.v.=.a.v.n.B.%.y * * 1 > @ @ @ * @ @ V 4.@.a.n.4.=.k.=.a.",
"%.g * % @ + o + * * o @ x  .%.4.6.v.[ =.v.A.^ ;   X @ @ @ % @ o * = P a.k.k.v.A.v.a.4.4.a * 2 1 @ % * > % % + N a.6.K.A.a.A.+.6.",
"p.%.s o X o o o * @ o % > x J.D.n.J.^ | 6.n.n.^ * o @ @ @ @ @ @ > 1 > R n.4.a.N.4.a.a.v. .y > ; @ @ * * @ % @ @ Z k.A.v.n.=.6.6.",
"a.6.] f o * % @ ; @ @ @ : * b K.J.a.%.<.a.%.a.D.^ > ; * * * @ @ ; : > * E 4.=.a.6.3.%.4.i. .y @ @ ; ; @ @ @ @ * * C k.=.n.6.%.a.",
"<.n.+.a.s * ; % % @ @ ; ; * o n A.a.6.a.6.<.n.4.J.Q * ; > % @ % * 2 : o = ) %.v.4.4.%.a.4.4. .9 @ * ; * * % o @ % @ C v.v.4.%.%.",
"n.n.3.3.Z 3 * & @ @ @ @ ; * @ o x 2. .2.%.>.a.m.y.4.j > > * o + * 2 ; O O 8 ;.B.=.a.#.v.N.N.%.Z 3 @ * * : ; @ @ @ * O N @.y.<.y.",
"A.N.%.G ) %.j @ @ @ @ ; ; * @ @ * x /  .>.4.%.o.%.E =.R 4 > @ O > 6 * o # > 8 3.n.=.4.K.v.a.T a.x.w * * % * @ % + @ o @ N <.<.k.",
"n.v.D { A.4.) f @ * % * ; @ @ @ @ o x ) o.%.4.] ) V.%.<.T 3 @ @ ; 2 $ # % * % q %.a.n.V.6.K %.=.n.i.a * > * @ * @ @ + + @ V <.a.",
"A.F Q v.V.a.3.f.g * @ @ @ @ @ o o o o j +.%.4.^ n.K.4.<.=.E , * * : ; * @ # % % 8 ` 4.n.R 4.a.#.V.n.2.u > * @ * @ + * @ * > V a.",
"K ^ v.a.a.` %.n.f.g + @ + @ + o o o o * x T ^ a.v.K.v. .) =.W , > > > @ + @ * * @ 8 { P =.4.<. .B.v.<. .r : @ ; @ @ % * * > * N ",
"^ 4.=.=.6.#.6.A.V.{ X @ @ @ + + % @ o * * D A.v.a.J.=.) Q 6.N.g # : @ + : 6 ; @ @ @ j a.n.a.v.4.v.A.V.i.H @ % ; * @ @ % + @ > , ",
"3.%.#.4.a.#.v.A.m.g @ + % + o o @ @ + @ F i.A.n.4.A.#.#.6.6.D % @ @ X + % 1 : O @ z s.A.n.V.B.4.n.m.a.%.y ; @ ; * @ @ * @ @ * U ",
"B.B.%.v.A.=.a.n.g * ; * ; 1 ; @ @ o + F %.v.J.A.a.A.#.v.v.S * @ @ % @ @ @ @ : + j k.N.A.a. .a.%.A.V.V.u > * * * % @ @ @ % = L #.",
"a.%.a.D.J.p.a.g @ * * * > 1 > * @ @ F %.+.V.J.n.4.J.B.K.D % % @ @ * : + % > @ x +.4.V.D.x.<.4.%.D.a.y * ; @ @ * @ @ @ ; * K a.6.",
"6.v.N.A.B.i.g @ @ * * @ > 2 ; @ * K n.o.R J.J.m.4.V.i.D * ; ; * @ @ 1 o o * j >.%./ %.<.y.%.4. .D.w @ * @ @ * : @ @ @ = L #.v.a.",
"6.6.<.n.B.j @ % * * * % ; > * * H A.D.<.) A.J.m.;.V.S ; * 6 ; @ @ * ; @ o x ` 4.4.4. .=.<.%.] W a @ @ ; @ @ % % @ @ & P 4.=.a.v.",
"a.<.4.a.g ; @ ; @ ; @ @ * ; ; F a.a.V.] +.J.V.4.4.S * > > 2 ; o O * + @ l 4.>.n.3.k.a.D.n.] ) u @ * o % % * * * ; * P 6.4.#.v.6.",
"k.4. .g * % * ; % ; @ @ @ ; H a.B.C.C.;.+.A.A.a.S @ % > ; ; * @ @ * + l m.^ %.p. .%.%.A.%.%.u 1 @ * @ * @ @ * @ & I =.v.4.6.v.a.",
"k.a.g @ % * * * @ * o o @ F %.a.J.V.J.V.2.B.A.D > @ o 6 2 ; * o @ * l p.p./ <.e.4.n.a.n.i.a ; 2 @ * @ @ @ @ * * Y v.6.=.a.+.a.4.",
"a.j * % * ; @ % @ @ + @ F x.%.S.J. .S. .4.+.S % ; @ X 2 6 ; % o @ j a.4.n.<.4.p.B.a.e.m.y ; ; > @ @ o o o @ = Y A.n.#.=.) =.6.4.",
"a * * * * > * * % @ + C >.%.+.n.C.J.J.4. .P * * ; @ @ 6 6 2 @ % y p.<.>.c.<.%.p.a.a.a.r @ ; k > @ % o @ O O I A.k.k.=.%.` =.n.v.",
"X @ @ @ % > * * ; % y I #.+.a.B.n.n.V.4.U @ @ @ % @ o 2 q 6 * q b V.>.e.m.<.+.p.S.x.9 X % : t 2 % @ o @ # 0 Q <.y.n.@.@.a.c.n.b ",
"o o @ % @ > * * : F a.^ Y  .] B.n.a.V.T > +   o % * o % 1 8 x ] m.P m.p.x.e.+.x.p.e + o o 1 * ; $ o o - P 4.C U N.D.<.#.6.7.M # ",
"% o O * * > * ; F 6.n.n.T L 4.a.v.V.E 6 @ + o   @ @ o @ ; z a.+.K.V.K f.m.4.%.4.y % @ @ + > @ % % + @ K 4.4.<.M U k.@.@.+.m * * ",
"@ @ o o @ ; * J 3.v.v.a.3.I Y =.%.R < * + o o @   X o o z  .#.+.K.H.2.G >.a.;.a + + + + o : @ * % $ Y e.4.v.6.4.m E <.<.N # * @ ",
"o % @ * O * H v.a.4.V.A.6.3.R D Y > : @ @ @ % : * o o j %.<.) ^ K.K.D.%.S ) y ; + % % @ * ; * @ > Y S.x.a.n.a.4.<.C K n > o > * ",
"@ * @ % $ > +.k.3.a.A.A.n.a.a.Y 4 % * * + % ; 3 2 > X I +.) #. .J.J.a.%.] 9 @ ; * : * ; * > 1 % r z.S.4.<.e.a. .<.e.m # * @ @ @ ",
"o @ ; @ % @ N a.=.4.B.a.a.a.a.6.I - + * + o * * 1 ; @ , U ` <.e.J.D.n.y.a.] w * $ : % @ * 1 * @ @ F K.a./ ] +.=.4.a.a.M @ * o + ",
"@ ; ; @ @ % % C B.v.A.n.v.B.] a.4.C * % @ o @ ; q 8 2 * 1 R #.n.K.J.a.4.a.x.<.q @ @ @ + * * ; * o @ H e.<.4.<.+.a.a.a.B.z @ + @ ",
"@ > @ @ @ ; * @ V <.n.n.a.B.=.6.e._ Y * $ + @ % p p @ % > 1 E D.H.D.y.+.v.v.a.3.0 ; % @ * > > * @ @ @ F 4.a.+.%.a.y.=.6.k.a O @ ",
"> 2 * @ @ t > @ @ V B.V.a. .) %.<.m.a.! = @ @ $ ; @ @ * > * 2 ) H.n.4.<.k.k.a.a.%.w % o @ > * > + @ @ @ F 4. .4.S.D.=.a.6.) n @ ",
"@ 2 * @ * 1 > % ; ; N n.4. .a.+.` x.D.D.Y > + @ @ X @ @ > 2 > < ) k.=.<.=.4.a.6.<.) 0 % * 1 * 1 + % + + @ J o.>.4.k.=.k.@.<.k.z ",
"u ; 6 % % 2 ; @ % * * V B.] %.+.o.a.a.n.>.U : * ; % + * * @ ; @ > E =.a.v.a.6.a.<.4. .q @ 1 > 1 + % o @ % % F a.n.n.n.k.@.=.k.@.",
"+.i ; % @ * % + @ * @ @ C 4.#.%.a.a.a.V.y.x.R > @ * X @ % o ; * * , E y.D.n.K.v.a.<.n.i.w > * 2 @ @ @ * ; @ @ H n.D.A.<.y.k.N.A.",
"O.^ q @ @ * * + % % % @ @ V ) %.n.a.a.V.4.V.V.R * @ + @ @ * * % $ * > [ K.K.K.D.4.a.J.J.#.q ; > @ @ o + + X o * J J.v.a.k.a.n.k.",
"%.+.^ u o * ; @ * ; * * @ @ M ] a.v.i.A.B.J.n.4.R ; o * * % * % $ * ; , ) y.a.a.<.n.K.A.=.[ 0 2 2 o o + + o @ @ O J #.3.6.4.c.N.",
">.)  .V.a * ; @ * * ; % @ @ % M a.a.v.K.a.a.J.B.B.P @ @ * ; > > * @ ; @ 3 ] =.a.4.J.J.J.4.4.) 2 * % % % @ @ @ * o @ D =.` 6.N.6.",
"<./ +.D.Z - + @ * * > @ + o @ + V S.V.K.o.%.n.B.a.3.j # ; @ * @ @ @ * * @ 0  .i.a.K.K.A.<.%.6.v = @ + % @ @ @ @ % @ # D  .4.J.D.",
"+.^ %.J E ^ i O @ * % o @ + * * % Z p.K. .<.n.4.v.! A.Y 1 * ; @ O @ * + + * y a.A.J.A.6.6.=.R ) W w @ @ @ * * > * % ; * S +.n.n.",
"%.^ D ^ k.a.%.y @ @ @ + * * * * % @ V K.4.4.V.4.E 4.D.J.R : * @ @ @ + O @ % 1 u 4.n.n.a.k.R  .<.2.2.8 % @ * * * @ + * * > S n.n.",
"<.G Y 4.a.a.4.%.s * * @ # @ @ ; * % @ C 4.B.%.Y %.] J.v.4.P : @ @ X @ @ + + ; * a %.n.k.! +.=.<.o.V.e.e @ * @ # + X * * : * F 6.",
"L Y ] v.A.k.a.<.4.s @ @ * * * * ; @ o O C ^ E a.a. .V.v.6.%.P = @ @ @ @ o @ % % @ y %.P %.a.%.] <.S.J. .q * + @ @ o @ : 3 * * D ",
"Q @.k.A.] ^ #.n.n.=.X @ @ @ @ * @ @ @ @ + C i.6.a.%.A.A.N.a.#.h # * ; * @ % * * ; # s %.=.4.%.<.+.S.V.i.U + O @ @ o ; 3 6 % @ : ",
"k.k.K.A.k.) #.A.N.j @ + @ @ @ ; @ o % O Z <.a.Y Q +.n.6.n.6.J > * * : * @ % @ + * a 3.a.a.n.4.a.a.n.A.V.i * o @ % + : : * % # I ",
"n.a.k.a.A.k. .c.b O + o @ > % * o @ @ Z v.+.=.4. .+.a.a.k.H = ; % @ ; @ + % ; * a  .3.a.a.4.e.a.n.D.J.g : # o O % + : @ @ O G a.",
"V.<.%.V.x.+.S.l * * @ o @ * * ; + @ C B. .[ 6.<.^ n.<.+.J > % * % * @ o o @ * a %.%.<.a.<.<.] e.a.V.f ; * @ o + % o @ X O F a.v.",
"a.a.) A.D.>.b * * 3 > * * ; * > o Z v.v.4.^ y.a.=.%.+.H ; ; @ % % % + + @ @ a %.a.+.4.v.<. .2.a.4.a + > q o o @ * @ % @ H %. .4.",
"n.4.%.n.K.l ; * * * > * * ; 1 6 V a.A.a.a.) <.n.y.a.J * * * @ @ * * * + @ a %.m.a.<.a.a.<.+.4.4.g o + * 2 + o @ * + # F <.Q %.a.",
"D.4.D.n.x * * @ * % % O @ > 1 C B.4.A.v.K.E 4.<.<.G * @ * ; @ * @ * * * g [ a.>.c.<.a.A.a.<.<.s @ % @ > > o + * * @ D ` ] ) =.J.",
"a.3.V.x @ 2 : * > * * + * ; C ` a.4.a.4.D.c.@.y.K * * @ o + @ @ @ * * a %.i.4.%.y.%.a.c.m.%.a @ % + + * > o @ @ # K j.] +.+.4.n.",
"D.a.x @ @ 2 * * * @ * + @ V O.^ k.a.n.N.n.k.7.H $ @ * * * ; @ * % % a  .4.a.4.4.c.y.D.K.m.g ; % o @ o @ * @ O @ S c.n./ ) %.a.J.",
"B.x @ * @ * * % % $ * o C o.+. .A.n.K.D.K.N.G @ O @ > * 1 ; * * % a ] 4.<.>.a.a.x.a.H.D.g @ ; + o > o ; * = * G @.n.D.) ^ %.a.D.",
"x @ * ; @ * * * % % @ v x.@.D O.6.a.D.a.A.Q * + @ @ : * > * @ % 8 ] y.4.<.+.4.<.a.x.D.a * ; ; @ + o o * > * K 6.%.v.n.Q ^ ) a.4."
};
