/* XPM */
static char *c3c22e526fb6441be42dcfc6e9ffe178Tsdw1MYTJHS8hfcU[] = {
/* columns rows colors chars-per-pixel */
"64 64 188 2 ",
"   c #1C1D17",
".  c #1D1C1A",
"X  c #161614",
"o  c #231F1C",
"O  c #1F201A",
"+  c #21221D",
"@  c #252523",
"#  c #292B24",
"$  c #2C2C2B",
"%  c #312A26",
"&  c #332E2B",
"*  c #2F302A",
"=  c #333326",
"-  c #33322D",
";  c #39352E",
":  c #3B3A2D",
">  c #333331",
",  c #373832",
"<  c #3A3B34",
"1  c #3C3C3A",
"2  c #423D36",
"3  c #3F4136",
"4  c #444234",
"5  c #44413B",
"6  c #46483B",
"7  c #4C4D3B",
"8  c #454543",
"9  c #4A4541",
"0  c #4C4B45",
"q  c #474948",
"w  c #4D4D4A",
"e  c #514D44",
"r  c #534E4A",
"t  c #4F5144",
"y  c #565346",
"u  c #54534D",
"i  c #59544D",
"p  c #555551",
"a  c #5C5652",
"s  c #5D5C55",
"d  c #5E5E5A",
"f  c #625B4C",
"g  c #635654",
"h  c #615C55",
"j  c #635D59",
"k  c #685E5C",
"l  c #5F6251",
"z  c #5F6058",
"x  c #626454",
"c  c #65635D",
"v  c #6B635D",
"b  c #6C6A5D",
"n  c #716C5E",
"m  c #646561",
"M  c #6B6461",
"N  c #676862",
"B  c #6C6B64",
"V  c #6D6E69",
"C  c #706664",
"Z  c #726C64",
"A  c #736E6A",
"S  c #786F68",
"D  c #6F7165",
"F  c #6F706B",
"G  c #747266",
"H  c #7A7766",
"J  c #75736C",
"K  c #7A756D",
"L  c #76786B",
"P  c #7D7A6E",
"I  c #7D7B66",
"U  c #6D7170",
"Y  c #757572",
"T  c #7B7671",
"R  c #777873",
"E  c #7D7A74",
"W  c #7D7D7A",
"Q  c #827761",
"!  c #827C6F",
"~  c #857B62",
"^  c #817772",
"/  c #827C74",
"(  c #837D79",
")  c #887F79",
"_  c #7F8176",
"`  c #7F827B",
"'  c #83806F",
"]  c #848176",
"[  c #898477",
"{  c #84837B",
"}  c #8A847C",
"|  c #86887D",
" . c #8B897E",
".. c #938773",
"X. c #92837C",
"o. c #918A7E",
"O. c #968A72",
"+. c #858582",
"@. c #8B8581",
"#. c #868983",
"$. c #8C8B83",
"%. c #858B89",
"&. c #8C8C8B",
"*. c #8A8589",
"=. c #918683",
"-. c #928C84",
";. c #998E83",
":. c #938D8A",
">. c #988F88",
",. c #8F9185",
"<. c #8E918A",
"1. c #949186",
"2. c #9A9285",
"3. c #9F9A87",
"4. c #94928C",
"5. c #9A958C",
"6. c #96988D",
"7. c #9C998E",
"8. c #8E8E90",
"9. c #948E90",
"0. c #949492",
"q. c #9B9692",
"w. c #969892",
"e. c #9D9B93",
"r. c #999799",
"t. c #9C9D9A",
"y. c #A09287",
"u. c #A09B87",
"i. c #A2948D",
"p. c #A39C8D",
"a. c #A9998C",
"s. c #A19692",
"d. c #A39C94",
"f. c #AA9E92",
"g. c #A39E9B",
"h. c #A89F98",
"j. c #9EA094",
"k. c #9FA09B",
"l. c #A5A196",
"z. c #A9A396",
"x. c #A5A199",
"c. c #A3A29D",
"v. c #A5A09C",
"b. c #A4A39C",
"n. c #AAA69D",
"m. c #AAA59C",
"M. c #A6A89D",
"N. c #ACA99D",
"B. c #B3A69B",
"V. c #B2AA9E",
"C. c #B8AA9F",
"Z. c #A49FA1",
"A. c #A6A7A1",
"S. c #A7A7A5",
"D. c #A4A4A2",
"F. c #ABA6A2",
"G. c #ACA6A2",
"H. c #AAA5A1",
"J. c #A7A8A2",
"K. c #A8A9A3",
"L. c #AEADA7",
"P. c #ACAAA3",
"I. c #A7A7A9",
"U. c #A8A6A9",
"Y. c #AEAEAE",
"T. c #ADADAB",
"R. c #B0A7A1",
"E. c #B2AEA5",
"W. c #B2ACA4",
"Q. c #B2ADA9",
"!. c #AFB1A6",
"~. c #AFB0AA",
"^. c #B4B1A6",
"/. c #BCB6A7",
"(. c #B3B2AC",
"). c #BBB5AD",
"_. c #B7B9AE",
"`. c #B9B9AE",
"'. c #AFB0B2",
"]. c #B4B5B3",
"[. c #BDBAB4",
"{. c #BABAB9",
"}. c #C1B8AF",
"|. c #C1BBB5",
" X c #C2BDB9",
".X c #C4C1B7",
"XX c #C5C1BC",
"oX c #CECBC6",
/* pixels */
"E V J z F z m d V Y Y R 6.6 m N N c J Y | f h u c < O z d W r.&.E V J z D d c z V Y Y R 0.6 c N N c J R | f s u c , O d d W 0.8.",
":.:.` w.$.+.{ W #.R 4.M.K.8 '.A.&.| ` D.e... .B ,.` $ 4.A.8.e.0.:.:.W w.&.+.` W #.E 4.M.J.8 '.H.<.+.` D.e... .B 1.` $ 4.K.0.w.0.",
" .( A %.e.` +.#.R E $.e.t.q L.S.Y c.Y h./ m.-.K #.Y * k.q.$.$.5.$.( A $.e.` +.#.Y T $.j.j.q T.S.Y b.Y g./ m.1.P #.E * t.q.$.@.q.",
"$.E J A t.#.+.E J N { #.c.w P.&.%.g.( d.d.h.[ 1._ e.8 c.G.4.$.=.@.( K A e.+.#.E L N { #.D.w H.&.#.c.( e.h.l.} $._ j.8 c.H.0.@.$.",
"} ( ] E B ) ( G { E W _ $.s Y.e.&.r.:.m.E.h.w.b.{ e.| 6.5.E =.} @.( / E N | / G { E E E $.d T.7.&.r.0.R.E.z.4.A.{ e.{ 5.5.E @.} ",
"^ } } $.X.z.s.;.E L m $.#.1 t.L.r.g.t.G.L.}.c.k.$.| c l.q.l.n.=.^ } $.$.=.z.q.;.E K N $.#.1 j.E.r.D.e.[.h. Xt.j.$.| N j.q.h.H.;.",
"v c w D T v S c w r u p b  .1.7.-.| E ` 5 N ` j.} R { R ] s A u v c w D T v H k 0 u u p B #.1.j.$.} E { N V $.t.| P { T { l Z r ",
"m.b.(.M.P.c z.;.;.[ [ 1.p./.N.e. . .1.t.+ j.4.1.7.1.| $. .| 7.3.G.c.~.D.P.k z.;.;.[ [ 1.p./.z.j.o.| 6.<.e.j.4.4.5.1.| $.| } e.7.",
"M.4.<.$.| Z d.p.B.} ] -.3.a.m.b.m.3.2.4., k.6.1.-.4.,.$.o.e.$.:.N.w.<.$.| A p.u.B. .] -.5.p.z.b.m.d.2.| !.M.6.$.-.6.,. .o.e.-.1.",
"k.k.#.| $.! d.f.B. ./ } B.@.l.z.m.2.j.7._ N.<.2.7.6.3.e.h.4.-.7.j.j.#.#.$.! d.f.m. ./ X.C.} z.z.m.1.7._ J.N.4.5.q.5.5.j.l.1.-.7.",
"M.#.{ +.6.3.z.f.f.h.e.f.N.7.z.z.^.e.P./ ~._.j.e.m.e.z.z.d.4.4.7.b.#.{ +.6.3.z.a.h.x.d.d.V.7.z.z.^.7.J.l ~._.l.e.m.d.x.z.h.4.6.7.",
"6. .1.1.5.m.5.z.M.b.E.b.N.m.z.7.(.N.(.v !..X_.^.V.^.V.z.(.N.b.;.5.$.,.1.5.N.5.l.m.z.E.b.m.N.x.e.!.P.^.b !..X).E.N.^.V.z.(.m.b.;.",
"y i 0 9 & % x f H 4 < 2 y : ; u j V o . . > p M J @.5.5.m. .Z e y u e 9 % @ y 2 7 7 6 2 r ; ; 0 t     O . $ p N J @.2.q.N.$.L r ",
"(.|.(.-.Z /  ./ [ x  .A 5.`.n.7./ 5.).# 8.+.=.H.d.+.$.@.r.~ 7.7.l.^.L. .Z ! } ( P 2.H H 7.|.m.s._ E H.# &.+.9.Q.m.0.<.:.H.O.m.n.",
"(.Y.R.K b.m.P d.1.B d.) / ;.s.E.5.c.Q.@ Y &.4.g.h.@.} q.s.2.d.e.g.e.s.T x.m.! 5.e.).h.[ / ;.s.W.q.c.R.@ +.Z.H.g.g.g.q.Q.R.m.E.Q.",
"~.P.e.f.c.=.h d.} h h.;.) =.5.d.@.>.G.$ Y 0.e.@.=.$.9.+.4.d.q.4.j.e.q.d.H.H.^ :.d.x.5.i.) } 5.d.$.-.T.> &.D.Q.e.g.h.H.0.A.W.R.G.",
"K.T.E e.c.( g T [ h d.@.E -.-.=.P 4.Z.8 V X.$.{ *.>.:.8.*.w.q.&.w.t.A e.m.4.( @.K ;.[ X.K -.;.$.P :.c.w ` a.t.w.e.g.t.Z.t.S.H.t.",
"S.~.N e.e.} M C E s b.2./ -.{ } J h.q.d N *.+.( E +.+.%.@.&.w.$.0.j.m e.e.E A ) =.-.( 1.( =.{ } K g.r.m E r.0.8.$.0.r.t.w.D.I.t.",
"0.D., 2.+.T C v K y ] E -.J A K B ) $.k ) m k A E T :.s.5.q.w.&.<.D., 4.+.T N A T A / E -.G Z P B } @.v @.T A E ) ( :.s.e.t.e.<.",
"t.t.t.r.t.~.( 0.e.U.4.(.< z.h.m.R.).q.m.@.E r Y a j s.L { {.'.S.Z.t.k.r.t.~.` w.t.S.0.(., d.p.h.m.Q.5.m./ T r A r r :.G { {.'.D.",
"t.(.H.c.w.c.K.A.~.].Y.].- 2.d.C.:.;.q.@.t.@.) =.:.@.[.c 0.Y.D.D.t.~.H.c.w.b.P.D.Q.].Y.).& / >.a.) ^ @.T <.T S / E A Q.g 0.'.Z.D.",
"t.D.m.c.e.S.c.D.{.].].[.u H.;.i.;.T @.A v q.:.=.>.q.Q.k Z.T.k.0.t.U.D.c.r.A.c.D.{.].].[.u 7./ X./ v K j r =.^ T +.@.g.s t.T.D.0.",
"r.c.E.t.4.e.c.k.{.T.t.Y.v g.5.$.=./ T T C :.:.g.4.@.r.8 D.Z.D.r.r.m.E.t.6.e.c.t.{.Y.t.~.M 4.>.{ / S M C g / / :.( T &.1 D.D.D.r.",
"6.G.Q.N.c.J.0.0.Y.A.A.{.M t.e.7.h.d.:.;./ ( :.q.( 4.9.p %.T.J.J.0.N.Q.n.c.P.0.0.T.K.D.{.m $.4.;.5.>.( ) Z A ( $.C @.) w %.T.D.D.",
"4.e./.N.m.n.e.H.b.P.!.^.5 e.n.E.m.R.n.7.2.w.5.-.1.P | u $.e.c.J.4.e./.m.N.m.g.A.c.N.P.^.4 ,.7.7.5.p.1. .} } } E { b G r $.7.M.M.",
"x x G P L ] {  .1.5.[ 1.r E ] } K P b 5 h P E ] H n P 5 c D _ L x x Z E L ] ]  .1.7.| 1.u G P E G Z j 1 s P P ] G b H 2 c D _ L ",
"{ { 6.a 0.c.t.0.t.<.e.e.J.m.J.A.c.t.[.c.E t.<.e.e.N.^.`.A.<.:.+.{ +.4.s 4.c.t.0.r.4.t.w.J.A.P.b.c.e.[.e.T k.<.e.e.J.!.).D.<.4.{ ",
"E $.Z.r w.g.:.) -.} $.5.c.h.-.^.E.E.XXn.+.w.4.6.,.=.e.b.s.>.+.A E $.t.r w.c.>.( -.@.$.5.c.d.-.^.E.T.XXA.{ w.1.6.,.-.e.b.d.:.+.J ",
"V T r.9 G.4.T A { K :.M h.s.h.x.m.m.).R.q.n.1.7.$.$.B./ ( J T a Z E w.9 P.4.T A ( K >.M f.d.d.h.z.m.).R.q.m.1.7.=.=.B./ ( A T a ",
"M ( 4.u 7.7.C K $.{ @.) q.y.a.1.-.;.).G.-.e.b.E.d.V.W. .( Z k k M / 4.u 5.e.Z K *.( @.) q.2.z.2.>.:.).G.$.d.b.E.e.R.W.$.( B j k ",
"M E e.A 4.( a M N ( / :.-.p.z.d.:.5.q.Q.4.E.).^.m.N.G.( ( j k k M E e.A :.( a v B ( / >.=.p.z.s.;.5.e.Q.>.G.).E.N.m.H.( E j k v ",
"Y -.5.u $.h C v T K / >.5.d.1.2.( } H v B / 2.$.] ] P E T k u M T =.7.p @.j C v ^ K / 4.2.7.-.4.( } G M Z ] 1.| | ] / ^ Y v i v ",
"E B J d V d c d F Y Y R 4.6 N N N m F Y | B z u z , + z m E w.&.E V L d V d c s B Y Y _ w.3 N B B m J R { y u q s : + z d W e.&.",
"4.&.` 6.$.+.` W #.R 4.M.K.8 Y.S.<.+.` D.7.E. .B <.+.$ 4.A.&.r.q.:.&.W 6.&.+.{ W #.E <.M.K.8 T.e.+.+.W D.5.Q I z _ R # 0.S.8.w.q.",
" .( A &.e.` +.$.R T $.e.t.q L.D.Y c.T h.] ).1.K $.R * t.q.*.*.q.$.( A &.w.` +.#.T T ,.j.D.q t.0.m 4.c q./ s.} K _ N * e.q.$.$.4.",
"$.E Y A j.+.+.E J B | #.c.w P.&.#.c.( e.f.m. .$._ k.8 h.H.4.@.;.=.E K J k.+.#.E L N ` #.k.w e.Y U 1.A  .;.6.! | D 4.q c.H.9.$.$.",
") ( ( E b [ ( G { E W E %.z ~.7.&.r.4.R.^.b.w.b.{ e.| 6.2.E =.} =.^ { ] A ,.] G ( T _ E #.d J.1.W *.:.q.p.=.4.b.( j.{ 5.5.^ =.} ",
"^ @.} $.=.z.q.;.E K m $.#.3 k.L.r.c.t./.L..Xb.j.$.{ c e.7.h.S.:.) f.4.q.d.z.m.d.( K c $.+.3 e.L.9.t.t.H.g./.c.j. .| c t.e.x.n.=.",
"v c r B K v S c 0 u u p b  .1.j.-.| E ( @ N ` e.{ L _ R E x Z s K A p | H.a ] L h a p p D | 2.3.$.| E ` 5 N { t.| T { E _ l Z u ",
"N.J.(.b.G.c z.;.;.] } 1.p./.z.7. .] 4.D.X e.| { } | L E E P 1.1.l.e.k.4.4.P z.y.z.[ [ 1.p./.z.j.$.} 1.j.O j.4.4.7.1.| $.| $.s.3.",
"M.4.<.$.#.Z p.p.B. .] -.3.a.z.M.m.u.1.4.# 7. .|  . .| P / $.E / 1.| ` E J L 7.f.B.} [ -.3.p.m.b.n.p.1.4., b.7.$.1.6.,. .-.e.-.4.",
"k.j.#.#.$./ d.f.z. ./ X.V.} l.l.m.5.3.e.0 e.| |  .] } -.-.] /  .,.<.R E T ! d.f.z. ./ X.V.$.l.l.n.2.7.7.` N.,.5.5.5.5.e.l.1.-.7.",
"M.$._ #.6.u.b.f.h.l.e.f.N.p.z.z.E.7.M.(.t N.$.$.1.1.1.3.$.( ] $.e.` L J | 3.b.f.f.b.e.d.N.p.z.l.^.e.P.! L._.j.e.m.d.x.z.l.2.6.2.",
"w.$.,.1.5.N.2.l.n.b.^.z.N.N.b.e.).M.P. Xu .XE.x.3.z.5.o.m.7.1./ { K E | 6.N.2.h.n.z.E.x.N.m.z.e.(.N._.b ~..X_.^.N.^.V.z.(.G.b.1.",
"y i 0 9 &   4 : 7 = < 2 e ; 2 < t , O o + O w c A E $.$.h.| Z 0 0 y e 9 %   3 = : = < 2 e = & ; * * # O . > p M G @.5.5.m.$.K r ",
"Q.|.(.=.h G P L K c  .Z 2.|.m.7.E q.|.f.{ *.:.Q.R.9.&.5.H.d.m.n.(.|.(. .x Z G A G z ' h o.E.2.o.G $.(.# &.+.:.Q.R.0.&.4.H.7.m.n.",
"(.Q.H.K h.m.! e.;.N h.) / ;.s.E.7.b.oXt.:.t.c.s.m.g.t.R.L.n.Q.Q.(.~.H.A 5.4.v $.-.N o.S C ) o.z.} >.g.@ +.Z.H.q.h.g.q.Q.R.E.E.Q.",
"T.P.g.d.c.$.h d.[ h h.>.) @.5.d.$.;.R.S.Z.c.Q.g.h.g.A.w.b.W.L.H.'.P.g.-.=./ u ;.{ i -./ n ^ ) o.L E g.$ &.A.T.d.s.g.H.0.H.W.L.H.",
"I.T.E e.A.W g ^ ) g d.} P =.;.$.T >.q.g.D.m.s.w.e.g.c.Z.t.S.H.t.I.!.R #.:.K a K ) y  .K v / / T M ) 0.q ` a.t.0.t.h.g.Z.t.L.H.g.",
"S.~.N 7.e.@.M M _ s x.5./ -.{ } K U.:.+.W r.0.&.&.4.0.t.q.c.I.e.D.4.N } *.) M M ( i 5.( n ^ / H B :.@.m E r.0.&.&.4.0.t.0.t.S.t.",
"0.H., 4.{ T Z c L u / / :.K G K B ) ( B $.Y A E { { :.d.e.s.e.&.4.1., -.} T B M G i P A ) Z Z K B ) @.M *.T Z E { ( 4.d.e.s.e.&.",
"t.t.k.w.r.T.+.0.e.I.4.(.< z.h.m.R.).7.m.) ( r Y a j s.J ` {.'.D.k.r.c.r.r.Y.{ 4.e.A.0.(.< h.h.m.L.).q.m.) ( r Y a j q.K ` {.].S.",
"t.(.H.c.w.c.P.D.Y.].T._.- 2.d.W.>.=.e.*.c.@.} =.:.+.|.M 0.Y.D.I.t.(.S.c.w.b.P.D.Y.].T.).- 2.h.W.;.=.r.@.j.@.) :.:.+.[.v 0.Y.t.I.",
"t.A.m.c.e.J.b.D.{.].].[.u m.;.i.;.K } A v q.=.@.:.5.Q.c t.T.t.0.t.S.H.j.r.A.D.c.[.{.].].i m.=.i.;.T @.A k q.-.=.:.q.Q.k Z.T.D.0.",
"r.b.E.t.5.e.c.t.{.Y.t.'.v c.5.=.=./ T T C ;.>.t.9.@.s.5 D.D.D.r.r.c.Q.t.6.e.c.r.{.Y.t.~.v c.7.=.=./ T T C :.:.s.4.@.r.5 D.D.D.r.",
"0.H.Q.n.c.H.0.0.T.J.b.{.M t.s.q.h.h.:.:./ ( :.e.( 0.q.p *.Y.S.S.0.N.Q.n.b.P.0.0.Y.K.D.{.M t.e.7.h.h.>.>./ ( :.s.E q.0.p *.T.S.D.",
"6.j./.n.m.m.t.A.b.P.!.^.5 e.n.G.m.R.n.5.6.4.7.$.1.I { p #.j.c.M.6.e./.n.m.N.e.D.c.N.P.^.5 j.N.P.R.R.c.6.6.6.7.-.4.P ] i #.j.b.M.",
"x x G ! K / {  .1.5.] 1.y E ] ' A s u 4 h P P _ K b ! 5 c G _ J x x G P K ] ]  .6.2.[ 1.y R ] E A h u 5 h P E _ L n ! 5 c G _ L ",
"{ ` 4.a 6.c.r.w.e.<.t.q.P.A.P.M.t.e.[.e.E e.<.k.j.J.!.).b.<.:.+.{ { 0.a 6.c.t.w.r.4.t.w.J.b.P.M.j.e.[.e.T t.4.e.e.A.~.).c.&.4.{ ",
"T $.D.e w.c.:.} 1.} $.7.c.d.-.^.L.E. XH.| r.4.4.,.-.d.b.e.4.@.A E $.Z.r w.c.:.{ >.} $.5.c.h.-.^.P.R.XXH.{ e.<.4.1.-.e.b.d.:.| J ",
"A E 0.9 G.4.T A ( J 4.M d.d.d.h.z.B.).Q.q.z.1.7.$.=.V./ ( A T a Z E e.9 H.4.T A { A 4.M d.d.d.h.n.B._.L.q.b.1.p.-.=.B.) ( A T a ",
"m ( :.p 5.e.n K $.( @.) q.2.f.;.4.-.Q.G.$.d.b.Q.e.R.E.=.( B k k M E 4.u 7.e.n K $.{ @.) q.2.f.;.4.-.).m.-.d.b.E.e.R.R. .( A j k ",
"M E e.A :.( g v B ( / :.-.p.z.d.;.5.q.Q.4.R./.E.H.N.N.( ( j k k M T e.Z >.( a M M ( E >.=.p.z.d.:.3.q.Q.4.R.`.E.n.N.G.( ( j k v ",
"J 4.2.u @.j C v ^ T / -.6.p.-.5.] X.L v B | 6.} | / P P T m a M Y >.5.u *.j C k ^ ^ / -.7.p.1.5./ } J v b [ 4.} | ] K E Y c a M "
};
